<?xml version="1.0" encoding="UTF-8" standalone="no"?>
<!-- Created with Inkscape (http://www.inkscape.org/) -->
<svg
   xmlns:dc="http://purl.org/dc/elements/1.1/"
   xmlns:cc="http://creativecommons.org/ns#"
   xmlns:rdf="http://www.w3.org/1999/02/22-rdf-syntax-ns#"
   xmlns:svg="http://www.w3.org/2000/svg"
   xmlns="http://www.w3.org/2000/svg"
   xmlns:sodipodi="http://sodipodi.sourceforge.net/DTD/sodipodi-0.dtd"
   xmlns:inkscape="http://www.inkscape.org/namespaces/inkscape"
   width="744.09448819"
   height="1052.3622047"
   id="svg3227"
   sodipodi:version="0.32"
   inkscape:version="0.46"
   sodipodi:docname="bigbird.svg"
   inkscape:output_extension="org.inkscape.output.svg.inkscape">
  <defs
     id="defs3229">
    <inkscape:perspective
       sodipodi:type="inkscape:persp3d"
       inkscape:vp_x="0 : 526.18109 : 1"
       inkscape:vp_y="0 : 1000 : 0"
       inkscape:vp_z="744.09448 : 526.18109 : 1"
       inkscape:persp3d-origin="372.04724 : 350.78739 : 1"
       id="perspective3235" />
  </defs>
  <sodipodi:namedview
     id="base"
     pagecolor="#ffffff"
     bordercolor="#666666"
     borderopacity="1.0"
     gridtolerance="10000"
     guidetolerance="10"
     objecttolerance="10"
     inkscape:pageopacity="0.0"
     inkscape:pageshadow="2"
     inkscape:zoom="1.979899"
     inkscape:cx="231.71752"
     inkscape:cy="134.74796"
     inkscape:document-units="px"
     inkscape:current-layer="layer1"
     showgrid="false"
     showguides="true"
     inkscape:guide-bbox="true"
     inkscape:window-width="1920"
     inkscape:window-height="1112"
     inkscape:window-x="0"
     inkscape:window-y="29" />
  <metadata
     id="metadata3232">
    <rdf:RDF>
      <cc:Work
         rdf:about="">
        <dc:format>image/svg+xml</dc:format>
        <dc:type
           rdf:resource="http://purl.org/dc/dcmitype/StillImage" />
      </cc:Work>
    </rdf:RDF>
  </metadata>
  <g
     inkscape:label="Layer 1"
     inkscape:groupmode="layer"
     id="layer1">
    <g
       id="g3782"
       transform="translate(-7.8289384,7.9933782)">
      <g
         id="g3766">
        <path
           style="fill:#513907;fill-opacity:1;fill-rule:evenodd;stroke:none;stroke-width:1px;stroke-linecap:butt;stroke-linejoin:miter;stroke-opacity:1"
           d="M 27.147849,998.06648 C 14.480594,1001.1962 18.252505,1014.9423 18.687822,1020.0373 C 26.354764,1006.1696 31.874459,1006.1749 34.345187,1008.4205 C 39.068678,1010.4224 41.675568,1007.1327 45.204327,1006.1477 C 53.474958,1012.8821 58.395996,1014.2571 63.387072,1015.7442 C 71.885498,1018.9955 100.47085,1022.859 110.10663,1022.5627 C 124.1006,1021.2742 133.30989,1020.1003 147.98735,1005.1376 C 164.03587,993.94652 180.02741,982.44205 196.72721,974.83297 L 182.08,960.94338 C 170.86716,973.84461 159.932,986.94021 145.46197,997.56141 C 145.48129,997.65799 110.86959,987.13143 99.500025,988.97507 C 94.173927,989.83873 71.748877,985.33541 54.295699,998.82408 C 50.668424,1000.0234 43.842621,996.2931 42.173869,987.45988 C 42.173869,982.10991 28.106839,982.15699 27.274118,989.48019 C 27.16978,990.39777 25.327423,992.54841 27.147849,998.06648 z"
           id="path3748"
           sodipodi:nodetypes="ccccccccccsccsc" />
        <path
           sodipodi:type="arc"
           style="opacity:0.8;fill:#000000;fill-opacity:1;fill-rule:evenodd;stroke:none;stroke-width:3;stroke-linecap:butt;stroke-linejoin:miter;marker:none;marker-start:none;marker-mid:none;marker-end:none;stroke-miterlimit:4;stroke-dasharray:none;stroke-dashoffset:0;stroke-opacity:1;visibility:visible;display:inline;overflow:visible;enable-background:accumulate"
           id="path3750"
           sodipodi:cx="33.082497"
           sodipodi:cy="992.95258"
           sodipodi:rx="2.6516504"
           sodipodi:ry="3.0935922"
           d="M 35.734147,992.95258 A 2.6516504,3.0935922 0 1 1 30.430846,992.95258 A 2.6516504,3.0935922 0 1 1 35.734147,992.95258 z"
           transform="translate(-0.8838835,-0.2525381)" />
        <path
           sodipodi:type="arc"
           style="opacity:0.8;fill:#ffffff;fill-opacity:1;fill-rule:evenodd;stroke:none;stroke-width:3;stroke-linecap:butt;stroke-linejoin:miter;marker:none;marker-start:none;marker-mid:none;marker-end:none;stroke-miterlimit:4;stroke-dasharray:none;stroke-dashoffset:0;stroke-opacity:1;visibility:visible;display:inline;overflow:visible;enable-background:accumulate"
           id="path3752"
           sodipodi:cx="32.514286"
           sodipodi:cy="994.02588"
           sodipodi:rx="1.1995561"
           sodipodi:ry="1.2626907"
           d="M 33.713842,994.02588 A 1.1995561,1.2626907 0 1 1 31.31473,994.02588 A 1.1995561,1.2626907 0 1 1 33.713842,994.02588 z"
           transform="translate(-1.0101525,-0.3788072)" />
        <path
           style="fill:#8f774b;fill-opacity:1;fill-rule:evenodd;stroke:none;stroke-width:1px;stroke-linecap:butt;stroke-linejoin:miter;stroke-opacity:1"
           d="M 146.59839,999.45544 L 185.23672,964.1001 L 188.77226,967.25683 L 147.356,1001.0969 L 146.59839,999.45544 z"
           id="path3754"
           sodipodi:nodetypes="ccccc" />
        <path
           style="fill:#2c1c00;fill-opacity:1;fill-rule:evenodd;stroke:none;stroke-width:1px;stroke-linecap:butt;stroke-linejoin:miter;stroke-opacity:1"
           d="M 191.92898,970.16102 L 194.45437,972.81267 L 148.23989,1003.4961 L 147.86108,1001.9808 L 191.92898,970.16102 z"
           id="path3756" />
        <path
           sodipodi:nodetypes="cccc"
           id="path3760"
           d="M 27.147849,998.06648 C 14.480594,1001.1962 18.252505,1014.9423 18.687822,1020.0373 C 26.354764,1006.1696 31.874459,1006.1749 34.345187,1008.4205 C 28.795861,1000.5148 32.65611,1006.6394 27.147849,998.06648 z"
           style="fill:#1e1603;fill-opacity:1;fill-rule:evenodd;stroke:none;stroke-width:1px;stroke-linecap:butt;stroke-linejoin:miter;stroke-opacity:1" />
        <path
           style="fill:#9b6f06;fill-opacity:1;fill-rule:evenodd;stroke:none;stroke-width:1px;stroke-linecap:butt;stroke-linejoin:miter;stroke-opacity:1"
           d="M 100.44704,1022.1839 L 100.0051,1027.7397 C 93.16042,1028.9177 92.330785,1030.6972 92.113285,1032.5379 C 93.88843,1029.0537 97.524671,1030.7069 99.310622,1029.5075 C 98.580917,1030.4366 99.340396,1031.3864 98.931815,1033.6744 C 99.268089,1031.7913 100.92205,1031.2759 100.51018,1029.6969 C 106.50836,1031.1282 107.04924,1033.5364 106.9499,1034.3688 C 107.72108,1034.3746 106.40432,1028.6678 101.6466,1027.8028 L 102.27795,1022.247 L 100.44704,1022.1839 z"
           id="path3764"
           sodipodi:nodetypes="cccccccccc" />
      </g>
      <path
         sodipodi:nodetypes="cccccc"
         id="path3775"
         d="M 74.877558,993.01573 C 94.812526,991.27147 106.16153,991.39372 110.61171,993.01572 C 122.31314,986.16632 123.13116,989.34411 146.85092,979.37866 C 154.75269,976.21084 159.86857,971.77236 162.63456,961.44845 C 162.84342,961.26237 148.51856,950.57084 127.65803,955.64007 C 123.3481,965.56478 83.13191,990.89695 74.877558,993.01573 z"
         style="fill:#2f2204;fill-opacity:1;fill-rule:evenodd;stroke:none;stroke-width:1px;stroke-linecap:butt;stroke-linejoin:miter;stroke-opacity:1" />
    </g>
    <g
       id="g3793"
       transform="translate(192.17106,7.9933782)">
      <g
         id="g3795">
        <path
           style="fill:#513907;fill-opacity:1;fill-rule:evenodd;stroke:none;stroke-width:1px;stroke-linecap:butt;stroke-linejoin:miter;stroke-opacity:1"
           d="M 27.147849,998.06648 C 14.480594,1001.1962 18.252505,1014.9423 18.687822,1020.0373 C 26.354764,1006.1696 31.874459,1006.1749 34.345187,1008.4205 C 39.068678,1010.4224 41.675568,1007.1327 45.204327,1006.1477 C 53.474958,1012.8821 58.395996,1014.2571 63.387072,1015.7442 C 71.885498,1018.9955 100.47085,1022.859 110.10663,1022.5627 C 124.1006,1021.2742 133.30989,1020.1003 147.98735,1005.1376 C 164.03587,993.94652 180.02741,982.44205 196.72721,974.83297 L 182.08,960.94338 C 170.86716,973.84461 159.932,986.94021 145.46197,997.56141 C 145.48129,997.65799 110.86959,987.13143 99.500025,988.97507 C 94.173927,989.83873 71.748877,985.33541 54.295699,998.82408 C 50.668424,1000.0234 43.842621,996.2931 42.173869,987.45988 C 42.173869,982.10991 28.106839,982.15699 27.274118,989.48019 C 27.16978,990.39777 25.327423,992.54841 27.147849,998.06648 z"
           id="path3797"
           sodipodi:nodetypes="ccccccccccsccsc" />
        <path
           sodipodi:type="arc"
           style="opacity:0.8;fill:#000000;fill-opacity:1;fill-rule:evenodd;stroke:none;stroke-width:3;stroke-linecap:butt;stroke-linejoin:miter;marker:none;marker-start:none;marker-mid:none;marker-end:none;stroke-miterlimit:4;stroke-dasharray:none;stroke-dashoffset:0;stroke-opacity:1;visibility:visible;display:inline;overflow:visible;enable-background:accumulate"
           id="path3799"
           sodipodi:cx="33.082497"
           sodipodi:cy="992.95258"
           sodipodi:rx="2.6516504"
           sodipodi:ry="3.0935922"
           d="M 35.734147,992.95258 A 2.6516504,3.0935922 0 1 1 30.430846,992.95258 A 2.6516504,3.0935922 0 1 1 35.734147,992.95258 z"
           transform="translate(-0.8838835,-0.2525381)" />
        <path
           sodipodi:type="arc"
           style="opacity:0.8;fill:#ffffff;fill-opacity:1;fill-rule:evenodd;stroke:none;stroke-width:3;stroke-linecap:butt;stroke-linejoin:miter;marker:none;marker-start:none;marker-mid:none;marker-end:none;stroke-miterlimit:4;stroke-dasharray:none;stroke-dashoffset:0;stroke-opacity:1;visibility:visible;display:inline;overflow:visible;enable-background:accumulate"
           id="path3801"
           sodipodi:cx="32.514286"
           sodipodi:cy="994.02588"
           sodipodi:rx="1.1995561"
           sodipodi:ry="1.2626907"
           d="M 33.713842,994.02588 A 1.1995561,1.2626907 0 1 1 31.31473,994.02588 A 1.1995561,1.2626907 0 1 1 33.713842,994.02588 z"
           transform="translate(-1.0101525,-0.3788072)" />
        <path
           style="fill:#8f774b;fill-opacity:1;fill-rule:evenodd;stroke:none;stroke-width:1px;stroke-linecap:butt;stroke-linejoin:miter;stroke-opacity:1"
           d="M 146.59839,999.45544 L 185.23672,964.1001 L 188.77226,967.25683 L 147.356,1001.0969 L 146.59839,999.45544 z"
           id="path3803"
           sodipodi:nodetypes="ccccc" />
        <path
           style="fill:#2c1c00;fill-opacity:1;fill-rule:evenodd;stroke:none;stroke-width:1px;stroke-linecap:butt;stroke-linejoin:miter;stroke-opacity:1"
           d="M 191.92898,970.16102 L 194.45437,972.81267 L 148.23989,1003.4961 L 147.86108,1001.9808 L 191.92898,970.16102 z"
           id="path3805" />
        <path
           sodipodi:nodetypes="cccc"
           id="path3807"
           d="M 27.147849,998.06648 C 14.480594,1001.1962 18.252505,1014.9423 18.687822,1020.0373 C 26.354764,1006.1696 31.874459,1006.1749 34.345187,1008.4205 C 28.795861,1000.5148 32.65611,1006.6394 27.147849,998.06648 z"
           style="fill:#1e1603;fill-opacity:1;fill-rule:evenodd;stroke:none;stroke-width:1px;stroke-linecap:butt;stroke-linejoin:miter;stroke-opacity:1" />
        <path
           style="fill:#9b6f06;fill-opacity:1;fill-rule:evenodd;stroke:none;stroke-width:1px;stroke-linecap:butt;stroke-linejoin:miter;stroke-opacity:1"
           d="M 100.44704,1022.1839 L 100.0051,1027.7397 C 93.16042,1028.9177 92.330785,1030.6972 92.113285,1032.5379 C 93.88843,1029.0537 97.524671,1030.7069 99.310622,1029.5075 C 98.580917,1030.4366 99.340396,1031.3864 98.931815,1033.6744 C 99.268089,1031.7913 100.92205,1031.2759 100.51018,1029.6969 C 106.50836,1031.1282 107.04924,1033.5364 106.9499,1034.3688 C 107.72108,1034.3746 106.40432,1028.6678 101.6466,1027.8028 L 102.27795,1022.247 L 100.44704,1022.1839 z"
           id="path3809"
           sodipodi:nodetypes="cccccccccc" />
      </g>
      <path
         sodipodi:nodetypes="cccccc"
         id="path3811"
         d="M 74.877558,993.01573 C 86.788942,992.52896 98.700326,991.29637 110.61171,993.01572 C 113.34804,989.44932 129.69715,993.76351 147.86107,988.21749 C 155.19321,984.99789 161.09068,984.77438 166.67517,974.7067 C 166.0739,974.45801 168.70862,964.61674 148.11362,965.61533 C 143.80369,975.54004 83.13191,990.89695 74.877558,993.01573 z"
         style="fill:#2f2204;fill-opacity:1;fill-rule:evenodd;stroke:none;stroke-width:1px;stroke-linecap:butt;stroke-linejoin:miter;stroke-opacity:1" />
    </g>
    <g
       id="g3813"
       transform="translate(392.17106,7.9933782)">
      <g
         id="g3815">
        <path
           style="fill:#513907;fill-opacity:1;fill-rule:evenodd;stroke:none;stroke-width:1px;stroke-linecap:butt;stroke-linejoin:miter;stroke-opacity:1"
           d="M 27.147849,998.06648 C 14.480594,1001.1962 18.252505,1014.9423 18.687822,1020.0373 C 26.354764,1006.1696 31.874459,1006.1749 34.345187,1008.4205 C 39.068678,1010.4224 41.675568,1007.1327 45.204327,1006.1477 C 53.474958,1012.8821 58.395996,1014.2571 63.387072,1015.7442 C 71.885498,1018.9955 100.47085,1022.859 110.10663,1022.5627 C 124.1006,1021.2742 133.30989,1020.1003 147.98735,1005.1376 C 164.03587,993.94652 180.02741,982.44205 196.72721,974.83297 L 182.08,960.94338 C 170.86716,973.84461 159.932,986.94021 145.46197,997.56141 C 145.48129,997.65799 110.86959,987.13143 99.500025,988.97507 C 94.173927,989.83873 71.748877,985.33541 54.295699,998.82408 C 50.668424,1000.0234 43.842621,996.2931 42.173869,987.45988 C 42.173869,982.10991 28.106839,982.15699 27.274118,989.48019 C 27.16978,990.39777 25.327423,992.54841 27.147849,998.06648 z"
           id="path3817"
           sodipodi:nodetypes="ccccccccccsccsc" />
        <path
           sodipodi:type="arc"
           style="opacity:0.8;fill:#000000;fill-opacity:1;fill-rule:evenodd;stroke:none;stroke-width:3;stroke-linecap:butt;stroke-linejoin:miter;marker:none;marker-start:none;marker-mid:none;marker-end:none;stroke-miterlimit:4;stroke-dasharray:none;stroke-dashoffset:0;stroke-opacity:1;visibility:visible;display:inline;overflow:visible;enable-background:accumulate"
           id="path3819"
           sodipodi:cx="33.082497"
           sodipodi:cy="992.95258"
           sodipodi:rx="2.6516504"
           sodipodi:ry="3.0935922"
           d="M 35.734147,992.95258 A 2.6516504,3.0935922 0 1 1 30.430846,992.95258 A 2.6516504,3.0935922 0 1 1 35.734147,992.95258 z"
           transform="translate(-0.8838835,-0.2525381)" />
        <path
           sodipodi:type="arc"
           style="opacity:0.8;fill:#ffffff;fill-opacity:1;fill-rule:evenodd;stroke:none;stroke-width:3;stroke-linecap:butt;stroke-linejoin:miter;marker:none;marker-start:none;marker-mid:none;marker-end:none;stroke-miterlimit:4;stroke-dasharray:none;stroke-dashoffset:0;stroke-opacity:1;visibility:visible;display:inline;overflow:visible;enable-background:accumulate"
           id="path3821"
           sodipodi:cx="32.514286"
           sodipodi:cy="994.02588"
           sodipodi:rx="1.1995561"
           sodipodi:ry="1.2626907"
           d="M 33.713842,994.02588 A 1.1995561,1.2626907 0 1 1 31.31473,994.02588 A 1.1995561,1.2626907 0 1 1 33.713842,994.02588 z"
           transform="translate(-1.0101525,-0.3788072)" />
        <path
           style="fill:#8f774b;fill-opacity:1;fill-rule:evenodd;stroke:none;stroke-width:1px;stroke-linecap:butt;stroke-linejoin:miter;stroke-opacity:1"
           d="M 146.59839,999.45544 L 185.23672,964.1001 L 188.77226,967.25683 L 147.356,1001.0969 L 146.59839,999.45544 z"
           id="path3823"
           sodipodi:nodetypes="ccccc" />
        <path
           style="fill:#2c1c00;fill-opacity:1;fill-rule:evenodd;stroke:none;stroke-width:1px;stroke-linecap:butt;stroke-linejoin:miter;stroke-opacity:1"
           d="M 191.92898,970.16102 L 194.45437,972.81267 L 148.23989,1003.4961 L 147.86108,1001.9808 L 191.92898,970.16102 z"
           id="path3825" />
        <path
           sodipodi:nodetypes="cccc"
           id="path3827"
           d="M 27.147849,998.06648 C 14.480594,1001.1962 18.252505,1014.9423 18.687822,1020.0373 C 26.354764,1006.1696 31.874459,1006.1749 34.345187,1008.4205 C 28.795861,1000.5148 32.65611,1006.6394 27.147849,998.06648 z"
           style="fill:#1e1603;fill-opacity:1;fill-rule:evenodd;stroke:none;stroke-width:1px;stroke-linecap:butt;stroke-linejoin:miter;stroke-opacity:1" />
        <path
           style="fill:#9b6f06;fill-opacity:1;fill-rule:evenodd;stroke:none;stroke-width:1px;stroke-linecap:butt;stroke-linejoin:miter;stroke-opacity:1"
           d="M 100.44704,1022.1839 L 100.0051,1027.7397 C 93.16042,1028.9177 92.330785,1030.6972 92.113285,1032.5379 C 93.88843,1029.0537 97.524671,1030.7069 99.310622,1029.5075 C 98.580917,1030.4366 99.340396,1031.3864 98.931815,1033.6744 C 99.268089,1031.7913 100.92205,1031.2759 100.51018,1029.6969 C 106.50836,1031.1282 107.04924,1033.5364 106.9499,1034.3688 C 107.72108,1034.3746 106.40432,1028.6678 101.6466,1027.8028 L 102.27795,1022.247 L 100.44704,1022.1839 z"
           id="path3829"
           sodipodi:nodetypes="cccccccccc" />
      </g>
      <path
         sodipodi:nodetypes="cccccc"
         id="path3831"
         d="M 74.877558,993.01573 C 84.232151,990.79243 93.688322,988.65746 110.61171,993.01572 C 125.40673,996.01531 126.09849,1010.9361 149.81825,1000.9707 C 155.45624,1007.558 151.38249,1009.3365 148.49243,1012.9662 C 142.08845,1018.0944 140.76416,1016.4494 131.31983,1017.0068 C 104.00705,1015.8032 76.138629,992.25054 74.877558,993.01573 z"
         style="fill:#2f2204;fill-opacity:1;fill-rule:evenodd;stroke:none;stroke-width:1px;stroke-linecap:butt;stroke-linejoin:miter;stroke-opacity:1" />
    </g>
  </g>
</svg>
