<?xml version="1.0" encoding="UTF-8" standalone="no"?>
<!-- Created with Inkscape (http://www.inkscape.org/) -->
<svg
   xmlns:dc="http://purl.org/dc/elements/1.1/"
   xmlns:cc="http://creativecommons.org/ns#"
   xmlns:rdf="http://www.w3.org/1999/02/22-rdf-syntax-ns#"
   xmlns:svg="http://www.w3.org/2000/svg"
   xmlns="http://www.w3.org/2000/svg"
   xmlns:xlink="http://www.w3.org/1999/xlink"
   xmlns:sodipodi="http://sodipodi.sourceforge.net/DTD/sodipodi-0.dtd"
   xmlns:inkscape="http://www.inkscape.org/namespaces/inkscape"
   width="744.09448819"
   height="1052.3622047"
   id="svg2"
   sodipodi:version="0.32"
   inkscape:version="0.46"
   sodipodi:docname="dragon.svg"
   inkscape:output_extension="org.inkscape.output.svg.inkscape">
  <defs
     id="defs4">
    <inkscape:perspective
       sodipodi:type="inkscape:persp3d"
       inkscape:vp_x="0 : 526.18109 : 1"
       inkscape:vp_y="0 : 1000 : 0"
       inkscape:vp_z="744.09448 : 526.18109 : 1"
       inkscape:persp3d-origin="372.04724 : 350.78739 : 1"
       id="perspective10" />
    <inkscape:perspective
       id="perspective2464"
       inkscape:persp3d-origin="372.04724 : 350.78739 : 1"
       inkscape:vp_z="744.09448 : 526.18109 : 1"
       inkscape:vp_y="0 : 1000 : 0"
       inkscape:vp_x="0 : 526.18109 : 1"
       sodipodi:type="inkscape:persp3d" />
    <filter
       id="filter3250"
       inkscape:label="fire">
      <feTurbulence
         id="feTurbulence3254"
         baseFrequency="0.015286624203821656 0.021556886227544911"
         numOctaves="1"
         seed="106"
         in="BackgroundImage" />
      <feColorMatrix
         id="feColorMatrix3256"
         values="0 0 0 0 1 1 0.5 1 0.5 0 0 0 0 0 0 10 10 10 10 0 " />
      <feGaussianBlur
         stdDeviation="5"
         id="feGaussianBlur3258" />
    </filter>
    <clipPath
       clipPathUnits="userSpaceOnUse"
       id="clipPath3242" />
    <clipPath
       clipPathUnits="userSpaceOnUse"
       id="clipPath3333">
      <path
         style="fill:#c00000;fill-opacity:1;fill-rule:evenodd;stroke:none;stroke-width:1.05218899;stroke-linecap:butt;stroke-linejoin:miter;stroke-miterlimit:4;stroke-dasharray:none;stroke-opacity:1"
         d="M 454.59494,854.86167 C 454.03694,851.23118 378.91237,941.19874 433.03253,1015.6136 C 436.62011,1016.1511 431.10353,1018.7715 428.67568,1040.9215 C 421.69693,1044.9507 421.82081,1046.1893 421.82081,1051.6579 C 449.79549,1051.8784 429.83991,1050.1012 459.07554,1051.3261 C 466.85851,1050.2446 457.3224,1043.4414 451.75333,1041.6864 C 454.87858,1040.4536 452.63984,1036.9642 458.3144,1021.1203 C 463.72094,1020.1982 467.8604,1019.9059 487.79042,1019.0622 C 495.1296,1018.7515 493.49741,1026.5673 493.21194,1042.8752 C 489.47566,1043.5577 484.04417,1044.5129 484.24696,1051.7399 C 500.17494,1051.8147 499.90468,1051.8944 524.47594,1052.3622 C 524.89854,1044.3157 523.38334,1045.5495 516.32191,1043.1267 C 518.78994,1040.6947 508.48256,1031.2088 514.35207,1021.6246 C 516.99198,1020.6388 534.45588,1021.9916 543.0665,1020.1879 C 544.38427,1019.9119 540.52128,1034.2243 541.46618,1044.1999 C 542.44999,1043.86 531.86141,1042.3172 532.06365,1051.7547 C 534.11032,1051.7255 553.02847,1052.2892 572.64874,1052.065 C 573.86088,1050.707 573.57924,1042.9068 563.84739,1040.6967 C 560.51554,1033.0865 561.02445,1021.1069 560.13078,1018.5469 C 565.24788,1009.9165 567.46432,1008.6595 568.29151,1004.0535 C 582.71447,923.74274 620.2092,851.65878 512.78373,785.64965 C 502.46514,750.80403 530.10747,785.00824 546.27566,786.21635 C 566.09962,783.93687 588.31027,784.11523 577.59206,750.38347 C 563.2812,724.21232 565.26149,716.36611 530.70759,703.44018 C 522.63873,700.42179 529.51609,693.02737 526.67957,670.75208 C 519.66026,676.60161 518.5468,681.13058 503.8053,696.56378 C 496.85649,696.73509 486.66766,697.58564 480.07925,698.2808 C 476.59409,698.64853 480.02992,693.48568 478.28356,680.59686 C 475.30698,683.16399 465.32615,698.28195 463.58449,698.55031 C 450.8484,705.43338 439.97655,719.33402 437.87506,730.33276 C 437.28387,730.28804 424.65944,730.2851 425.20469,730.77066 C 436.82195,748.99261 424.75614,732.09034 436.90464,748.15471 C 440.60144,759.74369 424.86636,718.37975 440.92905,768.6201 C 439.6163,770.34863 442.336,769.39259 428.35091,772.10323 C 429.93851,777.01934 443.45058,776.62262 445.21543,782.05258 C 447.10591,787.86905 447.93606,790.48617 454.48948,803.60854 C 455.61854,805.86937 450.41427,804.44066 431.39169,807.64191 C 433.40601,811.39668 453.83894,817.75443 466.84797,827.94141 C 469.57938,830.08028 469.11799,833.05299 448.54463,837.20949 C 452.01787,841.90808 477.82988,853.01896 487.90327,860.7299 C 494.35818,865.67097 479.55145,868.23766 479.94272,871.36789 C 480.16207,873.12261 495.78708,879.80347 496.77758,881.43586 C 496.90556,895.37321 492.62483,908.87573 491.4814,921.93795 C 491.17696,925.41584 492.40943,923.24162 473.51682,920.65707 C 473.00566,925.71688 482.20734,941.16449 479.48373,952.7559 C 478.293,957.82354 475.54527,961.23593 465.69355,957.3633 C 462.10488,958.68159 464.20106,950.91628 462.93218,944.10621 C 460.03838,944.92969 453.59685,959.07003 447.15325,963.16198 C 440.70964,967.25391 437.96733,960.99395 434.47525,959.66706 C 432.6769,955.73941 435.24126,959.75573 434.58172,950.29225 C 439.91677,950.9137 437.32259,948.03774 449.03947,949.84727 C 433.81971,925.79085 441.62489,940.25084 440.32895,923.40425 C 439.70469,919.12146 437.70569,923.05744 464.19908,920.09281 C 466.58008,914.84774 447.21825,902.11726 451.27401,894.53323 C 452.06274,890.88531 452.75588,889.31913 468.58614,888.84807 C 468.77249,884.62999 466.74965,886.66415 459.90429,877.71389 C 454.80996,871.05307 457.80448,859.44466 454.59494,854.86167 z"
         id="path3335"
         sodipodi:nodetypes="cccccccccccccccccccscccsccccccccccscccccscsccccccccccccsc"
         clip-path="none" />
    </clipPath>
    <clipPath
       clipPathUnits="userSpaceOnUse"
       id="clipPath3337">
      <path
         style="fill:#c00000;fill-opacity:1;fill-rule:evenodd;stroke:none;stroke-width:1.05218899;stroke-linecap:butt;stroke-linejoin:miter;stroke-miterlimit:4;stroke-dasharray:none;stroke-opacity:1"
         d="M 220.65381,843.54797 C 220.09581,839.91748 178.91237,941.19874 233.03253,1015.6136 C 236.62011,1016.1511 237.14374,1015.9431 238.67568,1040.9215 C 231.69693,1044.9507 231.82081,1046.1893 231.82081,1051.6579 C 259.79549,1051.8784 239.83991,1050.1012 269.07554,1051.3261 C 276.85851,1050.2446 267.3224,1043.4414 261.75333,1041.6864 C 264.87858,1040.4536 252.63984,1036.9642 258.3144,1021.1203 C 263.72094,1020.1982 267.8604,1019.9059 287.79042,1019.0622 C 295.1296,1018.7515 285.49741,1026.5673 285.21194,1042.8752 C 281.47566,1043.5577 276.04417,1044.5129 276.24696,1051.7399 C 292.17494,1051.8147 291.90468,1051.8944 316.47594,1052.3622 C 316.89854,1044.3157 315.38334,1045.5495 308.32191,1043.1267 C 310.78994,1040.6947 308.48256,1031.2088 314.35207,1021.6246 C 316.99198,1020.6388 334.45588,1021.9916 343.0665,1020.1879 C 344.38427,1019.9119 350.52128,1034.2243 351.46618,1044.1999 C 352.44999,1043.86 341.86141,1042.3172 342.06365,1051.7547 C 344.11032,1051.7255 363.02847,1052.2892 382.64874,1052.065 C 383.86088,1050.707 383.57924,1042.9068 373.84739,1040.6967 C 370.51554,1033.0865 361.02445,1021.1069 360.13078,1018.5469 C 365.24788,1009.9165 367.46432,1008.6595 368.29151,1004.0535 C 382.71447,923.74274 420.2092,851.65878 312.78373,785.64965 C 302.46514,750.80403 334.10747,781.00824 350.27566,782.21635 C 370.09962,779.93687 392.31027,780.11523 381.59206,746.38347 C 367.2812,720.21232 365.26149,716.36611 330.70759,703.44018 C 322.63873,700.42179 329.51609,693.02737 326.67957,670.75208 C 319.66026,676.60161 318.5468,681.13058 303.8053,696.56378 C 296.85649,696.73509 286.66766,697.58564 280.07925,698.2808 C 276.59409,698.64853 280.02992,693.48568 278.28356,680.59686 C 275.30698,683.16399 265.32615,698.28195 263.58449,698.55031 C 250.8484,705.43338 239.97655,719.33402 237.87506,730.33276 C 237.28387,730.28804 224.65944,730.2851 225.20469,730.77066 C 236.82195,748.99261 224.75614,732.09034 236.90464,748.15471 C 240.60144,759.74369 224.86636,718.37975 240.92905,768.6201 C 239.61629,770.34863 242.336,769.39259 228.35091,772.10323 C 229.93851,777.01934 243.45058,776.62262 245.21543,782.05258 C 247.10591,787.86905 247.93606,790.48617 254.48948,803.60854 C 255.61854,805.86937 250.41427,804.44066 231.39169,807.64191 C 233.40601,811.39668 253.83894,817.75443 266.84797,827.94141 C 269.57938,830.08028 269.11799,833.05299 248.54463,837.20949 C 252.01787,841.90808 277.82988,853.01896 287.90327,860.7299 C 294.35818,865.67097 279.55145,868.23766 279.94272,871.36789 C 280.16207,873.12261 295.78708,879.80347 296.77757,881.43586 C 296.90556,895.37321 292.62483,908.87573 291.4814,921.93795 C 291.17696,925.41584 292.40943,923.24162 273.51682,920.65707 C 273.00565,925.71688 282.20734,941.16449 279.48373,952.7559 C 278.293,957.82354 275.54527,961.23593 265.69355,957.3633 C 262.10488,958.68159 264.20106,950.91628 262.93218,944.10621 C 260.03837,944.92969 253.59685,959.07003 247.15324,963.16198 C 240.70963,967.25391 236.27028,964.38806 232.77819,963.06117 C 230.97984,959.13352 223.92755,955.23024 223.26801,945.76676 C 228.60306,946.38821 232.7971,945.20931 244.51398,947.01884 C 230.4256,929.75065 233.1396,935.72536 226.18681,923.96994 C 225.56255,919.68715 221.8665,917.96628 248.35989,915.00165 C 250.74089,909.75658 225.72221,897.59178 229.77796,890.00775 C 230.5667,886.35983 231.82551,883.09659 247.65578,882.62553 C 247.84213,878.40745 235.63695,873.65339 228.7916,864.70313 C 223.69726,858.04231 223.86335,848.13096 220.65381,843.54797 z"
         id="path3339"
         sodipodi:nodetypes="cccccccccccccccccccscccsccccccccccscccccscsccccccccccccsc"
         clip-path="none" />
    </clipPath>
    <clipPath
       clipPathUnits="userSpaceOnUse"
       id="clipPath3341">
      <path
         style="fill:#c00000;fill-opacity:1;fill-rule:evenodd;stroke:none;stroke-width:1.05218899;stroke-linecap:butt;stroke-linejoin:miter;stroke-miterlimit:4;stroke-dasharray:none;stroke-opacity:1"
         d="M 37.624376,842.98228 C 37.066376,839.35179 -21.087626,941.19874 33.032535,1015.6136 C 36.620115,1016.1511 31.143738,1015.9431 32.675678,1040.9215 C 25.696937,1044.9507 25.820807,1046.1893 25.820807,1051.6579 C 53.795496,1051.8784 33.839911,1050.1012 63.075539,1051.3261 C 70.858508,1050.2446 61.322402,1043.4414 55.753327,1041.6864 C 58.878582,1040.4536 52.639842,1036.9642 58.3144,1021.1203 C 63.720944,1020.1982 67.860406,1019.9059 87.790426,1019.0622 C 95.129604,1018.7515 89.497411,1026.5673 89.211939,1042.8752 C 85.475661,1043.5577 80.04417,1044.5129 80.246963,1051.7399 C 96.174942,1051.8147 95.90468,1051.8944 120.47594,1052.3622 C 120.89854,1044.3157 119.38334,1045.5495 112.32191,1043.1267 C 114.78994,1040.6947 108.48256,1031.2088 114.35207,1021.6246 C 116.99198,1020.6388 134.45588,1021.9916 143.0665,1020.1879 C 144.38427,1019.9119 144.52128,1034.2243 145.46618,1044.1999 C 146.44999,1043.86 135.86141,1042.3172 136.06365,1051.7547 C 138.11032,1051.7255 157.02847,1052.2892 176.64874,1052.065 C 177.86088,1050.707 177.57924,1042.9068 167.84739,1040.6967 C 164.51554,1033.0865 161.02445,1021.1069 160.13078,1018.5469 C 165.24788,1009.9165 167.46432,1008.6595 168.29151,1004.0535 C 182.71447,923.74274 220.2092,851.65878 112.78373,785.64965 C 102.46514,750.80403 132.10747,783.00824 148.27566,784.21635 C 168.09962,781.93687 190.31027,782.11523 179.59206,748.38347 C 165.2812,722.21232 165.26149,716.36611 130.70759,703.44018 C 122.63873,700.42179 129.51609,693.02737 126.67957,670.75208 C 119.66026,676.60161 118.5468,681.13058 103.8053,696.56378 C 96.856489,696.73509 86.667667,697.58564 80.079253,698.2808 C 76.594095,698.64853 80.029917,693.48568 78.28356,680.59686 C 75.306982,683.16399 65.326148,698.28195 63.58449,698.55031 C 50.848405,705.43338 39.976554,719.33402 37.875063,730.33276 C 37.283876,730.28804 24.659443,730.2851 25.204688,730.77066 C 36.821953,748.99261 24.756138,732.09034 36.904641,748.15471 C 40.601438,759.74369 24.86636,718.37975 40.929051,768.6201 C 39.616297,770.34863 42.336004,769.39259 28.35091,772.10323 C 29.938517,777.01934 43.450585,776.62262 45.215435,782.05258 C 47.105908,787.86905 47.936062,790.48617 54.489481,803.60854 C 55.618541,805.86937 50.414275,804.44066 31.391688,807.64191 C 33.406013,811.39668 53.838946,817.75443 66.847969,827.94141 C 69.579383,830.08028 69.117995,833.05299 48.544633,837.20949 C 52.017871,841.90808 77.829882,853.01896 87.903269,860.7299 C 94.358178,865.67097 79.551449,868.23766 79.942727,871.36789 C 80.162069,873.12261 95.787081,879.80347 96.777577,881.43586 C 96.905566,895.37321 92.624831,908.87573 91.481404,921.93795 C 91.176957,925.41584 92.409436,923.24162 73.516824,920.65707 C 73.005657,925.71688 82.207339,941.16449 79.483733,952.7559 C 78.293004,957.82354 75.545268,961.23593 65.693547,957.3633 C 62.104884,958.68159 64.201059,950.91628 62.932183,944.10621 C 60.038377,944.92969 53.596855,959.07003 47.153247,963.16198 C 40.709637,967.25391 37.967336,960.99395 34.475249,959.66706 C 32.676903,955.73941 31.847148,955.79593 31.18761,946.33245 C 36.522662,946.9539 37.888272,945.20931 49.605156,947.01884 C 34.385401,922.96242 35.968034,936.85673 34.672094,920.01014 C 34.047837,915.72735 38.837061,917.40059 65.330453,914.43596 C 67.711452,909.19089 42.69277,897.02609 46.748524,889.44206 C 47.537261,885.79414 48.79608,882.5309 64.626345,882.05984 C 64.812697,877.84176 52.607516,873.0877 45.76216,864.13744 C 40.667825,857.47662 40.833915,847.56527 37.624376,842.98228 z"
         id="path3343"
         sodipodi:nodetypes="cccccccccccccccccccscccsccccccccccscccccscsccccccccccccsc"
         clip-path="none" />
    </clipPath>
    <filter
       inkscape:collect="always"
       id="filter3453">
      <feGaussianBlur
         inkscape:collect="always"
         stdDeviation="4.6435608"
         id="feGaussianBlur3455" />
    </filter>
    <filter
       inkscape:collect="always"
       id="filter4118">
      <feGaussianBlur
         inkscape:collect="always"
         stdDeviation="6.9332126"
         id="feGaussianBlur4120" />
    </filter>
    <filter
       inkscape:collect="always"
       id="filter4140">
      <feGaussianBlur
         inkscape:collect="always"
         stdDeviation="7.0370962"
         id="feGaussianBlur4142" />
    </filter>
    <filter
       inkscape:collect="always"
       id="filter4156">
      <feGaussianBlur
         inkscape:collect="always"
         stdDeviation="6.9762469"
         id="feGaussianBlur4158" />
    </filter>
  </defs>
  <sodipodi:namedview
     id="base"
     pagecolor="#ffffff"
     bordercolor="#666666"
     borderopacity="1.0"
     gridtolerance="10000"
     guidetolerance="10"
     objecttolerance="10"
     inkscape:pageopacity="0.0"
     inkscape:pageshadow="2"
     inkscape:zoom="0.5"
     inkscape:cx="374.86897"
     inkscape:cy="190.88694"
     inkscape:document-units="px"
     inkscape:current-layer="layer1"
     showgrid="false"
     inkscape:window-width="960"
     inkscape:window-height="731"
     inkscape:window-x="16"
     inkscape:window-y="49"
     showguides="true"
     inkscape:guide-bbox="true" />
  <metadata
     id="metadata7">
    <rdf:RDF>
      <cc:Work
         rdf:about="">
        <dc:format>image/svg+xml</dc:format>
        <dc:type
           rdf:resource="http://purl.org/dc/dcmitype/StillImage" />
      </cc:Work>
    </rdf:RDF>
  </metadata>
  <g
     inkscape:label="Layer 1"
     inkscape:groupmode="layer"
     id="layer1">
    <rect
       style="opacity:1;fill:none;fill-opacity:1;fill-rule:evenodd;stroke:none;stroke-width:10;stroke-linecap:butt;stroke-linejoin:miter;stroke-miterlimit:4;stroke-dasharray:none;stroke-opacity:1;filter:url(#filter3250)"
       id="rect3310"
       width="200"
       height="400"
       x="200"
       y="652.36218"
       clip-path="url(#clipPath3337)" />
    <rect
       style="opacity:1;fill:none;fill-opacity:1;fill-rule:evenodd;stroke:none;stroke-width:10;stroke-linecap:butt;stroke-linejoin:miter;stroke-miterlimit:4;stroke-dasharray:none;stroke-opacity:1;filter:url(#filter3250)"
       id="rect2470"
       width="200"
       height="400"
       x="0"
       y="652.36218"
       clip-path="url(#clipPath3341)" />
    <image
       y="652.36218"
       x="-1.1313709"
       id="reference-image"
       height="400"
       width="600"
       sodipodi:absref="/home/siim/dev/magic/img/dragon.png"
       xlink:href="dragon.png"
       style="opacity:0"
       clip-path="none"
       inkscape:export-filename="/home/siim/dev/magic/img/dragon_svg.png"
       inkscape:export-xdpi="45"
       inkscape:export-ydpi="45" />
    <path
       sodipodi:type="arc"
       style="fill:#000000;fill-opacity:1;stroke:#000000;stroke-width:1;stroke-linecap:butt;stroke-linejoin:miter;stroke-miterlimit:4;stroke-dasharray:none;stroke-opacity:1"
       id="path3246"
       sodipodi:cx="151.42857"
       sodipodi:cy="743.07648"
       sodipodi:rx="17.142857"
       sodipodi:ry="9.2857151"
       d="M 168.57143,743.07648 A 17.142857,9.2857151 0 1 1 168.56525,742.8272 L 151.42857,743.07648 z"
       sodipodi:start="0"
       sodipodi:end="6.2563365"
       transform="matrix(0.8660255,0.5000001,-0.5000001,0.8660255,387.02497,20.107301)" />
    <path
       style="fill:#ff2020;fill-opacity:1;fill-rule:evenodd;stroke:none;stroke-width:1px;stroke-linecap:butt;stroke-linejoin:miter;stroke-opacity:1"
       d="M 174.19929,778.20186 C 176.8875,786.1001 182.737,796.45712 194.99929,811.80186 C 183.6383,804.53964 179.49311,806.60305 173.39929,817.40186 C 176.05167,802.99753 176.37964,789.86106 167.39929,781.80186 L 174.19929,778.20186 z"
       id="path3257"
       sodipodi:nodetypes="ccccc" />
    <path
       sodipodi:type="arc"
       style="fill:#000000;fill-opacity:1;stroke:#000000;stroke-width:1;stroke-linecap:butt;stroke-linejoin:miter;stroke-miterlimit:4;stroke-dasharray:none;stroke-opacity:1"
       id="path3268"
       sodipodi:cx="151.42857"
       sodipodi:cy="743.07648"
       sodipodi:rx="17.142857"
       sodipodi:ry="9.2857151"
       d="M 168.57143,743.07648 A 17.142857,9.2857151 0 1 1 168.56525,742.8272 L 151.42857,743.07648 z"
       sodipodi:start="0"
       sodipodi:end="6.2563365"
       transform="matrix(0.8660255,0.5000001,-0.5000001,0.8660255,587.02497,20.107301)" />
    <path
       style="fill:#ff2020;fill-opacity:1;fill-rule:evenodd;stroke:none;stroke-width:1px;stroke-linecap:butt;stroke-linejoin:miter;stroke-opacity:1"
       d="M 376.19929,776.20186 C 376.54951,785.97049 380.00801,789.70248 397.26203,801.05384 C 385.90104,793.79162 382.32154,799.81482 381.31889,812.87638 C 377.46134,792.89211 374.47189,784.51156 369.39929,779.80186 L 376.19929,776.20186 z"
       id="path3270"
       sodipodi:nodetypes="ccccc" />
    <g
       id="dragon3">
      <rect
         clip-path="url(#clipPath3333)"
         y="652.36218"
         x="400"
         height="400"
         width="200"
         id="rect3312"
         style="opacity:1;fill:none;fill-opacity:1;fill-rule:evenodd;stroke:#000000;stroke-width:10;stroke-linecap:butt;stroke-linejoin:miter;stroke-miterlimit:4;stroke-dasharray:none;stroke-opacity:1;filter:url(#filter3250)" />
      <path
         transform="matrix(0.8660255,0.5000001,-0.5000001,0.8660255,787.02497,20.107301)"
         sodipodi:end="6.2563365"
         sodipodi:start="0"
         d="M 168.57143,743.07648 A 17.142857,9.2857151 0 1 1 168.56525,742.8272 L 151.42857,743.07648 z"
         sodipodi:ry="9.2857151"
         sodipodi:rx="17.142857"
         sodipodi:cy="743.07648"
         sodipodi:cx="151.42857"
         id="path3276"
         style="fill:#000000;fill-opacity:1;stroke:#000000;stroke-width:1;stroke-linecap:butt;stroke-linejoin:miter;stroke-miterlimit:4;stroke-dasharray:none;stroke-opacity:1"
         sodipodi:type="arc" />
      <path
         sodipodi:nodetypes="ccccc"
         id="path3278"
         d="M 572.19929,780.20186 C 574.8875,788.1001 570.85761,799.28555 583.1199,814.63029 C 571.75891,807.36807 571.00783,804.90599 564.91401,815.7048 C 567.56639,801.30047 574.37964,791.86106 565.39929,783.80186 L 572.19929,780.20186 z"
         style="fill:#ff2020;fill-opacity:1;fill-rule:evenodd;stroke:none;stroke-width:1px;stroke-linecap:butt;stroke-linejoin:miter;stroke-opacity:1" />
    </g>
    <path
       clip-path="url(#clipPath3333)"
       sodipodi:nodetypes="cccccccccccccccccccscccsccccccccccscccccscsccccccccccccsc"
       id="path3183"
       d="M 455.12129,854.33559 C 454.56329,850.7051 379.43872,940.67266 433.55888,1015.0875 C 437.14646,1015.625 431.62988,1018.2454 429.20203,1040.3954 C 422.22328,1044.4246 422.34716,1045.6632 422.34716,1051.1318 C 450.32184,1051.3523 430.36626,1049.5751 459.60189,1050.8 C 467.38486,1049.7185 457.84875,1042.9153 452.27968,1041.1603 C 455.40493,1039.9275 453.16619,1036.4381 458.84075,1020.5942 C 464.24729,1019.6721 468.38675,1019.3798 488.31677,1018.5361 C 495.65595,1018.2254 494.02376,1026.0412 493.73829,1042.3491 C 490.00201,1043.0316 484.57052,1043.9868 484.77331,1051.2138 C 500.70129,1051.2886 500.43103,1051.3683 525.00229,1051.8361 C 525.42489,1043.7896 523.90969,1045.0234 516.84826,1042.6006 C 519.31629,1040.1686 509.00891,1030.6827 514.87842,1021.0985 C 517.51833,1020.1127 534.98223,1021.4655 543.59285,1019.6618 C 544.91062,1019.3858 541.04763,1033.6982 541.99253,1043.6738 C 542.97634,1043.3339 532.38776,1041.7911 532.59,1051.2286 C 534.63667,1051.1994 553.55482,1051.7631 573.17509,1051.5389 C 574.38723,1050.1809 574.10559,1042.3807 564.37374,1040.1706 C 561.04189,1032.5604 561.5508,1020.5808 560.65713,1018.0208 C 565.77423,1009.3904 567.99067,1008.1334 568.81786,1003.5274 C 583.24082,923.21666 620.73555,851.1327 513.31008,785.12357 C 502.99149,750.27795 530.63382,784.48216 546.80201,785.69027 C 566.62597,783.41079 588.83662,783.58915 578.11841,749.85739 C 563.80755,723.68624 565.78784,715.84003 531.23394,702.9141 C 523.16508,699.89571 530.04244,692.50129 527.20592,670.226 C 520.18661,676.07553 519.07315,680.6045 504.33165,696.0377 C 497.38284,696.20901 487.19401,697.05956 480.6056,697.75472 C 477.12044,698.12245 480.55627,692.9596 478.80991,680.07078 C 475.83333,682.63791 465.8525,697.75587 464.11084,698.02423 C 451.37475,704.9073 440.5029,718.80794 438.40141,729.80668 C 437.81022,729.76196 425.18579,729.75902 425.73104,730.24458 C 437.3483,748.46653 425.28249,731.56426 437.43099,747.62863 C 441.12779,759.21761 425.39271,717.85367 441.4554,768.09402 C 440.14265,769.82255 442.86235,768.86651 428.87726,771.57715 C 430.46486,776.49326 443.97693,776.09654 445.74178,781.5265 C 447.63226,787.34297 448.46241,789.96009 455.01583,803.08246 C 456.14489,805.34329 450.94062,803.91458 431.91804,807.11583 C 433.93236,810.8706 454.36529,817.22835 467.37432,827.41533 C 470.10573,829.5542 469.64434,832.52691 449.07098,836.68341 C 452.54422,841.382 478.35623,852.49288 488.42962,860.20382 C 494.88453,865.14489 480.0778,867.71158 480.46907,870.84181 C 480.68842,872.59653 496.31343,879.27739 497.30393,880.90978 C 497.43191,894.84713 493.15118,908.34965 492.00775,921.41187 C 491.70331,924.88976 492.93578,922.71554 474.04317,920.13099 C 473.53201,925.1908 482.73369,940.63841 480.01008,952.22982 C 478.81935,957.29746 476.07162,960.70985 466.2199,956.83722 C 462.63123,958.15551 464.72741,950.3902 463.45853,943.58013 C 460.56473,944.40361 454.1232,958.54395 447.6796,962.6359 C 441.23599,966.72779 438.49368,960.46787 435.0016,959.14098 C 433.20325,955.21333 435.76761,959.22965 435.10807,949.76617 C 440.44312,950.38762 437.84894,947.51166 449.56582,949.32119 C 434.34606,925.26477 442.15124,939.72476 440.8553,922.87817 C 440.23104,918.59538 438.23204,922.53136 464.72543,919.56673 C 467.10643,914.32166 447.7446,901.59118 451.80036,894.00715 C 452.58909,890.35923 453.28223,888.79305 469.11249,888.32199 C 469.29884,884.10391 467.276,886.13807 460.43064,877.18781 C 455.33631,870.52699 458.33083,858.91858 455.12129,854.33559 z"
       style="opacity:1;fill:none;fill-opacity:1;fill-rule:evenodd;stroke:#900000;stroke-width:10;stroke-linecap:butt;stroke-linejoin:miter;stroke-miterlimit:4;stroke-dasharray:none;stroke-opacity:1;filter:url(#filter4118)" />
    <path
       clip-path="url(#clipPath3337)"
       sodipodi:nodetypes="cccccccccccccccccccscccsccccccccccscccccscsccccccccccccsc"
       id="path4130"
       d="M 220.65375,843.5479 C 220.09575,839.91741 178.91231,941.19867 233.03247,1015.6135 C 236.62005,1016.151 237.14368,1015.943 238.67562,1040.9214 C 231.69687,1044.9507 231.82075,1046.1893 231.82075,1051.6579 C 259.79543,1051.8784 239.83985,1050.1012 269.07548,1051.3261 C 276.85845,1050.2446 267.32234,1043.4414 261.75327,1041.6864 C 264.87852,1040.4535 252.63978,1036.9641 258.31434,1021.1202 C 263.72088,1020.1981 267.86034,1019.9058 287.79036,1019.0621 C 295.12954,1018.7514 285.49735,1026.5672 285.21188,1042.8752 C 281.4756,1043.5577 276.04411,1044.5129 276.2469,1051.7399 C 292.17488,1051.8147 291.90462,1051.8944 316.47588,1052.3622 C 316.89848,1044.3157 315.38328,1045.5495 308.32185,1043.1267 C 310.78988,1040.6946 308.4825,1031.2087 314.35201,1021.6245 C 316.99192,1020.6387 334.45582,1021.9915 343.06644,1020.1878 C 344.38421,1019.9118 350.52122,1034.2242 351.46612,1044.1999 C 352.44993,1043.86 341.86135,1042.3172 342.06359,1051.7547 C 344.11026,1051.7255 363.02841,1052.2892 382.64868,1052.065 C 383.86082,1050.707 383.57918,1042.9068 373.84733,1040.6966 C 370.51548,1033.0864 361.02439,1021.1068 360.13072,1018.5468 C 365.24782,1009.9164 367.46426,1008.6594 368.29145,1004.0534 C 382.71441,923.74267 420.20914,851.65871 312.78367,785.64958 C 302.46508,750.80396 334.10741,781.00817 350.2756,782.21628 C 370.09956,779.9368 392.31021,780.11516 381.592,746.3834 C 367.28114,720.21225 365.26143,716.36604 330.70753,703.44011 C 322.63867,700.42172 329.51603,693.0273 326.67951,670.75201 C 319.6602,676.60154 318.54674,681.13051 303.80524,696.56371 C 296.85643,696.73502 286.6676,697.58557 280.07919,698.28073 C 276.59403,698.64846 280.02986,693.48561 278.2835,680.59679 C 275.30692,683.16392 265.32609,698.28188 263.58443,698.55024 C 250.84834,705.43331 239.97649,719.33395 237.875,730.33269 C 237.28381,730.28797 224.65938,730.28503 225.20463,730.77059 C 236.82189,748.99254 224.75608,732.09027 236.90458,748.15464 C 240.60138,759.74362 224.8663,718.37968 240.92899,768.62003 C 239.61623,770.34856 242.33594,769.39252 228.35085,772.10316 C 229.93845,777.01927 243.45052,776.62255 245.21537,782.05251 C 247.10585,787.86898 247.936,790.4861 254.48942,803.60847 C 255.61848,805.8693 250.41421,804.44059 231.39163,807.64184 C 233.40595,811.39661 253.83888,817.75436 266.84791,827.94134 C 269.57932,830.08021 269.11793,833.05292 248.54457,837.20942 C 252.01781,841.90801 277.82982,853.01889 287.90321,860.72983 C 294.35812,865.6709 279.55139,868.23759 279.94266,871.36782 C 280.16201,873.12254 295.78702,879.8034 296.77751,881.43579 C 296.9055,895.37314 292.62477,908.87566 291.48134,921.93788 C 291.1769,925.41577 292.40937,923.24155 273.51676,920.657 C 273.00559,925.71681 282.20728,941.16442 279.48367,952.75583 C 278.29294,957.82347 275.54521,961.23586 265.69349,957.36323 C 262.10482,958.68152 264.201,950.91621 262.93212,944.10614 C 260.03831,944.92962 253.59679,959.06996 247.15318,963.16191 C 240.70957,967.25384 236.27022,964.38799 232.77813,963.0611 C 230.97978,959.13345 223.92749,955.23017 223.26795,945.76669 C 228.603,946.38814 232.79704,945.20924 244.51392,947.01877 C 230.42554,929.75058 233.13954,935.72529 226.18675,923.96987 C 225.56249,919.68708 221.86644,917.96621 248.35983,915.00158 C 250.74083,909.75651 225.72215,897.59171 229.7779,890.00768 C 230.56664,886.35976 231.82545,883.09652 247.65572,882.62546 C 247.84207,878.40738 235.63689,873.65332 228.79154,864.70306 C 223.6972,858.04224 223.86329,848.13089 220.65375,843.5479 z"
       style="fill:none;fill-opacity:1;fill-rule:evenodd;stroke:#900000;stroke-width:10;stroke-linecap:butt;stroke-linejoin:miter;stroke-miterlimit:4;stroke-dasharray:none;stroke-opacity:1;filter:url(#filter4140)" />
    <path
       clip-path="url(#clipPath3341)"
       sodipodi:nodetypes="cccccccccccccccccccscccsccccccccccscccccscsccccccccccccsc"
       id="path4146"
       d="M 37.624376,842.98226 C 37.066376,839.35177 -21.087626,941.19872 33.032535,1015.6136 C 36.620115,1016.1511 31.143738,1015.9431 32.675678,1040.9215 C 25.696937,1044.9507 25.820807,1046.1893 25.820807,1051.6579 C 53.795496,1051.8784 33.839911,1050.1012 63.075539,1051.3261 C 70.858508,1050.2446 61.322402,1043.4414 55.753327,1041.6864 C 58.878582,1040.4536 52.639842,1036.9642 58.3144,1021.1203 C 63.720944,1020.1982 67.860406,1019.9059 87.790426,1019.0622 C 95.129604,1018.7515 89.497411,1026.5673 89.211939,1042.8752 C 85.475661,1043.5577 80.04417,1044.5129 80.246963,1051.7399 C 96.174942,1051.8147 95.90468,1051.8944 120.47594,1052.3622 C 120.89854,1044.3157 119.38334,1045.5495 112.32191,1043.1267 C 114.78994,1040.6947 108.48256,1031.2088 114.35207,1021.6246 C 116.99198,1020.6388 134.45588,1021.9916 143.0665,1020.1879 C 144.38427,1019.9119 144.52128,1034.2243 145.46618,1044.1999 C 146.44999,1043.86 135.86141,1042.3172 136.06365,1051.7547 C 138.11032,1051.7255 157.02847,1052.2892 176.64874,1052.065 C 177.86088,1050.707 177.57924,1042.9068 167.84739,1040.6967 C 164.51554,1033.0865 161.02445,1021.1069 160.13078,1018.5469 C 165.24788,1009.9165 167.46432,1008.6595 168.29151,1004.0535 C 182.71447,923.74272 220.2092,851.65876 112.78373,785.64963 C 102.46514,750.80401 132.10747,783.00822 148.27566,784.21633 C 168.09962,781.93685 190.31027,782.11521 179.59206,748.38345 C 165.2812,722.2123 165.26149,716.36609 130.70759,703.44016 C 122.63873,700.42177 129.51609,693.02735 126.67957,670.75206 C 119.66026,676.60159 118.5468,681.13056 103.8053,696.56376 C 96.856489,696.73507 86.667667,697.58562 80.079253,698.28078 C 76.594095,698.64851 80.029917,693.48566 78.28356,680.59684 C 75.306982,683.16397 65.326148,698.28193 63.58449,698.55029 C 50.848405,705.43336 39.976554,719.334 37.875063,730.33274 C 37.283876,730.28802 24.659443,730.28508 25.204688,730.77064 C 36.821953,748.99259 24.756138,732.09032 36.904641,748.15469 C 40.601438,759.74367 24.86636,718.37973 40.929051,768.62008 C 39.616297,770.34861 42.336004,769.39257 28.35091,772.10321 C 29.938517,777.01932 43.450585,776.6226 45.215435,782.05256 C 47.105908,787.86903 47.936062,790.48615 54.489481,803.60852 C 55.618541,805.86935 50.414275,804.44064 31.391688,807.64189 C 33.406013,811.39666 53.838946,817.75441 66.847969,827.94139 C 69.579383,830.08026 69.117995,833.05297 48.544633,837.20947 C 52.017871,841.90806 77.829882,853.01894 87.903269,860.72988 C 94.358178,865.67095 79.551449,868.23764 79.942727,871.36787 C 80.162069,873.12259 95.787081,879.80345 96.777577,881.43584 C 96.905566,895.37319 92.624831,908.87571 91.481404,921.93793 C 91.176957,925.41582 92.409436,923.2416 73.516824,920.65705 C 73.005657,925.71686 82.207339,941.16447 79.483733,952.75588 C 78.293004,957.82352 75.545268,961.23591 65.693547,957.36328 C 62.104884,958.68157 64.201059,950.91626 62.932183,944.10619 C 60.038377,944.92967 53.596855,959.07001 47.153247,963.16196 C 40.709637,967.25389 37.967336,960.99393 34.475249,959.66704 C 32.676903,955.73939 31.847148,955.79591 31.18761,946.33243 C 36.522662,946.95388 37.888272,945.20929 49.605156,947.01882 C 34.385401,922.9624 35.968034,936.85671 34.672094,920.01012 C 34.047837,915.72733 38.837061,917.40057 65.330453,914.43594 C 67.711452,909.19087 42.69277,897.02607 46.748524,889.44204 C 47.537261,885.79412 48.79608,882.53088 64.626345,882.05982 C 64.812697,877.84174 52.607516,873.08768 45.76216,864.13742 C 40.667825,857.4766 40.833915,847.56525 37.624376,842.98226 z"
       style="fill:none;fill-opacity:1;fill-rule:evenodd;stroke:#900000;stroke-width:10;stroke-linecap:butt;stroke-linejoin:miter;stroke-miterlimit:4;stroke-dasharray:none;stroke-opacity:1;filter:url(#filter4156)" />
  </g>
</svg>
