<?xml version="1.0" encoding="UTF-8" standalone="no"?>
<!-- Created with Inkscape (http://www.inkscape.org/) -->
<svg
   xmlns:dc="http://purl.org/dc/elements/1.1/"
   xmlns:cc="http://creativecommons.org/ns#"
   xmlns:rdf="http://www.w3.org/1999/02/22-rdf-syntax-ns#"
   xmlns:svg="http://www.w3.org/2000/svg"
   xmlns="http://www.w3.org/2000/svg"
   xmlns:sodipodi="http://sodipodi.sourceforge.net/DTD/sodipodi-0.dtd"
   xmlns:inkscape="http://www.inkscape.org/namespaces/inkscape"
   width="744.09448819"
   height="1052.3622047"
   id="svg2"
   sodipodi:version="0.32"
   inkscape:version="0.46"
   sodipodi:docname="grass.svg"
   inkscape:output_extension="org.inkscape.output.svg.inkscape">
  <defs
     id="defs4">
    <inkscape:perspective
       sodipodi:type="inkscape:persp3d"
       inkscape:vp_x="0 : 526.18109 : 1"
       inkscape:vp_y="0 : 1000 : 0"
       inkscape:vp_z="744.09448 : 526.18109 : 1"
       inkscape:persp3d-origin="372.04724 : 350.78739 : 1"
       id="perspective10" />
    <filter
       inkscape:collect="always"
       id="filter3161">
      <feGaussianBlur
         inkscape:collect="always"
         stdDeviation="0.55177243"
         id="feGaussianBlur3163" />
    </filter>
    <filter
       inkscape:collect="always"
       id="filter3169">
      <feGaussianBlur
         inkscape:collect="always"
         stdDeviation="0.55256636"
         id="feGaussianBlur3171" />
    </filter>
  </defs>
  <sodipodi:namedview
     id="base"
     pagecolor="#ffffff"
     bordercolor="#666666"
     borderopacity="1.0"
     gridtolerance="10000"
     guidetolerance="10"
     objecttolerance="10"
     inkscape:pageopacity="0.0"
     inkscape:pageshadow="2"
     inkscape:zoom="5.6"
     inkscape:cx="65.827271"
     inkscape:cy="32.929722"
     inkscape:document-units="px"
     inkscape:current-layer="layer1"
     showgrid="false"
     showguides="true"
     inkscape:guide-bbox="true"
     inkscape:window-width="1280"
     inkscape:window-height="800"
     inkscape:window-x="0"
     inkscape:window-y="0" />
  <metadata
     id="metadata7">
    <rdf:RDF>
      <cc:Work
         rdf:about="">
        <dc:format>image/svg+xml</dc:format>
        <dc:type
           rdf:resource="http://purl.org/dc/dcmitype/StillImage" />
      </cc:Work>
    </rdf:RDF>
  </metadata>
  <g
     inkscape:label="Layer 1"
     inkscape:groupmode="layer"
     id="layer1">
    <rect
       style="opacity:1;fill:#000000;fill-opacity:0;fill-rule:evenodd;stroke:none;stroke-width:3;stroke-linecap:butt;stroke-linejoin:miter;marker:none;marker-start:none;marker-mid:none;marker-end:none;stroke-miterlimit:4;stroke-dasharray:none;stroke-dashoffset:0;stroke-opacity:1;visibility:visible;display:inline;overflow:visible;enable-background:accumulate"
       id="rect2383"
       width="200"
       height="25"
       x="0"
       y="1027.3622" />
    <path
       style="fill:#4ae82c;fill-rule:evenodd;stroke:none;stroke-width:1px;stroke-linecap:butt;stroke-linejoin:miter;stroke-opacity:1;fill-opacity:0.75294119000000004;filter:url(#filter3161)"
       d="M 0.35714286,1052.005 C 0.17857143,1051.2908 1.7857143,1035.755 2.1428571,1036.8265 C 2.5,1037.8979 4.6428572,1050.9336 4.6428572,1050.9336 C 4.6428572,1050.9336 6.25,1033.255 6.25,1035.755 C 6.25,1038.255 7.5,1051.1122 7.5,1051.1122 C 7.5,1051.1122 10.535714,1035.5765 10.892857,1037.3622 C 11.25,1039.1479 12.678571,1053.6122 12.678571,1053.6122 C 12.678571,1053.6122 14.285714,1037.3622 15.178571,1040.3979 C 16.071429,1043.4336 16.785714,1051.8265 16.785714,1051.8265 C 16.785714,1051.8265 17.678571,1038.6122 18.214286,1038.7908 C 18.75,1038.9693 21.25,1054.1479 21.428572,1053.0765 C 21.607143,1052.0051 25,1040.5765 25,1040.5765 C 25,1040.5765 25.357143,1057.7193 26.071429,1055.0408 C 26.785714,1052.3622 26.964286,1037.3622 28.928571,1039.6836 C 30.892857,1042.005 32.857143,1055.3979 32.857143,1055.3979 L 33.571429,1041.8265 L 34.821429,1054.505 C 34.821429,1054.505 37.678572,1035.755 38.928572,1038.9693 C 40.178572,1042.1836 43.392857,1053.7908 43.392857,1053.7908 C 43.392857,1053.7908 44.642857,1042.3622 44.821429,1043.6122 C 45,1044.8622 47.857143,1053.255 47.857143,1053.255 C 47.857143,1053.255 48.750001,1042.005 50.535715,1044.505 C 52.321429,1047.005 54.285715,1054.8622 54.107143,1052.8979 C 53.928572,1050.9336 57.142857,1039.3265 57.5,1040.2193 C 57.857143,1041.1122 60.178571,1053.4336 60.178571,1052.1836 C 60.178571,1050.9336 60.178572,1037.005 60.178572,1038.4336 C 60.178572,1039.8622 65.892857,1050.755 66.071429,1051.4693 C 66.25,1052.1836 68.571429,1042.3622 68.571429,1042.3622 C 68.571429,1042.3622 68.035714,1053.0765 68.571429,1052.005 C 69.107143,1050.9336 71.428572,1038.6122 72.5,1040.3979 C 73.571429,1042.1836 78.392857,1056.1122 78.392857,1056.1122 L 81.607143,1039.505 L 84.821429,1053.6122 C 84.821429,1053.6122 86.071429,1039.3265 86.071429,1040.3979 C 86.071429,1041.4693 87.321429,1054.8622 87.5,1053.0765 C 87.678572,1051.2908 90.535714,1035.5765 91.071429,1037.1836 C 91.607143,1038.7908 94.285714,1054.6836 94.464286,1053.4336 C 94.642857,1052.1836 97.142857,1040.2193 97.142857,1040.2193 L 98.928572,1052.1836 L 100.17857,1038.9693 L 101.42857,1052.7193 L 104.46429,1035.755 C 104.46429,1035.755 108.57143,1057.3622 108.57143,1054.505 C 108.57143,1051.6479 112.67857,1035.9336 112.32143,1037.7193 C 111.96429,1039.505 112.5,1052.8979 112.85714,1053.7908 C 113.21429,1054.6836 116.42857,1035.9336 116.42857,1036.8265 C 116.42857,1037.7193 120.53571,1055.5765 120.53571,1055.5765 C 120.53571,1055.5765 123.92857,1037.5408 123.92857,1038.6122 C 123.92857,1039.6836 124.82143,1051.6479 125.17857,1051.8265 C 125.53571,1052.005 131.42857,1033.9693 131.25,1036.4693 C 131.07143,1038.9693 133.75,1058.0765 133.92857,1056.4693 C 134.10714,1054.8622 134.28571,1040.9336 135,1042.005 C 135.71429,1043.0765 138.21429,1052.5408 138.21429,1052.5408 C 138.21429,1052.5408 139.82143,1043.4336 140.17857,1044.3265 C 140.53571,1045.2193 140.53571,1057.005 141.60714,1052.7193 C 142.67857,1048.4336 145.17857,1034.5051 145.71429,1035.7551 C 146.25,1037.0051 148.03571,1047.7193 148.21429,1048.7908 C 148.39286,1049.8622 154.82143,1038.6122 155.71429,1039.6836 C 156.60714,1040.7551 156.78572,1052.7194 156.78572,1052.7194 L 159.10714,1043.0765 C 159.10714,1043.0765 163.39286,1055.755 163.92857,1053.9693 C 164.46429,1052.1836 163.75,1035.2193 164.28571,1037.005 C 164.82143,1038.7908 169.64286,1056.6479 170,1055.9336 C 170.35714,1055.2193 173.57143,1038.7908 173.75,1039.505 C 173.92857,1040.2193 175.53571,1053.6122 175.53571,1053.6122 L 178.75,1041.4693 C 178.75,1041.4693 181.07143,1059.1479 182.32143,1054.3265 C 183.57143,1049.505 185.35714,1040.9336 185.35714,1040.9336 L 187.85714,1053.255 L 192.14286,1039.3265 C 192.14286,1039.3265 195.53571,1055.2193 195.17857,1053.7908 C 194.82143,1052.3622 194.10714,1037.5408 195,1038.7908 C 195.89286,1040.0408 200,1052.5408 200,1052.5408 L 0.35714286,1052.005 z"
       id="path3159"
       sodipodi:nodetypes="cscscscscsscsscccscscsssssscsscccsssscccccsssscssssscsssssccssssccscccsscc" />
    <path
       style="fill:#066800;fill-rule:evenodd;stroke:none;stroke-width:1px;stroke-linecap:butt;stroke-linejoin:miter;stroke-opacity:1;fill-opacity:0.75294119000000004;filter:url(#filter3169)"
       d="M 0.35714286,1052.005 L 1.7857143,1038.0765 L 6.4285714,1052.3622 L 9.2857143,1037.3622 L 15.714286,1052.3622 C 15.714286,1052.3622 17.5,1040.2193 17.857143,1041.6479 C 18.214286,1043.0765 20.357143,1052.7193 20.357143,1052.7193 C 20.357143,1052.7193 23.214286,1042.005 23.928571,1044.8622 C 24.642857,1047.7193 25.535715,1053.255 26.25,1051.8264 C 26.964286,1050.3979 29.285714,1042.005 30.714286,1045.5765 C 32.142857,1049.1479 33.75,1052.3622 33.75,1052.3622 C 33.75,1052.3622 40.714286,1037.7193 40.714286,1039.1479 C 40.714286,1040.5765 41.428571,1055.9336 42.5,1053.4336 C 43.571429,1050.9336 47.857143,1039.505 47.857143,1039.505 C 47.857143,1039.505 50.892857,1054.505 51.607143,1052.3622 C 52.321429,1050.2193 54.285714,1035.9336 55.714286,1038.7908 C 57.142857,1041.6479 61.428572,1050.5765 61.428572,1050.5765 C 61.428572,1050.5765 62.142857,1031.6479 63.214286,1033.7908 C 64.285714,1035.9336 70,1050.9336 70,1050.9336 C 70,1050.9336 73.571429,1038.4336 74.285714,1041.2908 C 75,1044.1479 75,1054.1479 76.428572,1052.005 C 77.857143,1049.8622 79.285714,1036.6479 81.428572,1039.8622 C 83.571429,1043.0765 86.785714,1050.9336 86.785714,1050.9336 C 86.785714,1050.9336 89.642857,1037.3622 90,1039.1479 C 90.357143,1040.9336 92.142857,1050.2193 92.142857,1050.2193 C 92.142857,1050.2193 95,1033.7908 95.714286,1035.5765 C 96.428572,1037.3622 100,1052.3622 100,1052.3622 L 103.57143,1043.0765 L 106.07143,1050.5765 C 106.07143,1050.5765 107.14286,1035.9336 108.57143,1038.4336 C 110,1040.9336 113.21429,1051.2908 113.21429,1051.2908 C 113.21429,1051.2908 115.35714,1036.2908 116.78571,1039.505 C 118.21429,1042.7193 122.14286,1053.0765 122.14286,1053.0765 C 122.14286,1053.0765 125,1036.6479 125.71429,1038.4336 C 126.42857,1040.2193 130.17857,1053.0764 130.17857,1053.0764 L 137.14286,1040.2193 L 138.57143,1051.2908 C 138.57143,1051.2908 142.14286,1039.1479 143.21429,1040.5765 C 144.28571,1042.005 146.42857,1054.505 147.14286,1052.7193 C 147.85715,1050.9336 150,1029.1479 152.14286,1032.7193 C 154.28571,1036.2908 158.21429,1053.4336 158.21429,1053.4336 C 158.21429,1053.4336 158.92857,1038.7908 159.28571,1040.5765 C 159.64286,1042.3622 161.78571,1050.9336 161.78571,1050.9336 L 166.07143,1040.9336 L 169.28571,1051.6479 L 171.42857,1039.505 L 172.5,1050.5765 C 172.5,1050.5765 178.92857,1033.7908 179.28571,1035.5765 C 179.64286,1037.3622 182.14286,1053.0765 182.14286,1053.0765 L 187.14286,1039.505 L 190.71429,1052.005 L 193.21429,1035.5765 L 194.64286,1052.005 L 197.5,1037.7193 L 200,1052.3622 L 0.35714286,1052.005 z"
       id="path3157"
       sodipodi:nodetypes="cccccscssscsscsscscssscscscccscscscccssscscccccscccccccc" />
  </g>
</svg>
