<?xml version="1.0" encoding="UTF-8" standalone="no"?>
<!-- Created with Inkscape (http://www.inkscape.org/) -->
<svg
   xmlns:dc="http://purl.org/dc/elements/1.1/"
   xmlns:cc="http://creativecommons.org/ns#"
   xmlns:rdf="http://www.w3.org/1999/02/22-rdf-syntax-ns#"
   xmlns:svg="http://www.w3.org/2000/svg"
   xmlns="http://www.w3.org/2000/svg"
   xmlns:xlink="http://www.w3.org/1999/xlink"
   xmlns:sodipodi="http://sodipodi.sourceforge.net/DTD/sodipodi-0.dtd"
   xmlns:inkscape="http://www.inkscape.org/namespaces/inkscape"
   width="1052.3622"
   height="744.09448"
   id="svg3874"
   sodipodi:version="0.32"
   inkscape:version="0.46"
   version="1.0"
   sodipodi:docname="hills.svg"
   inkscape:output_extension="org.inkscape.output.svg.inkscape"
   inkscape:export-filename="/home/siim/dev/magic/img/hills.png"
   inkscape:export-xdpi="90"
   inkscape:export-ydpi="90">
  <defs
     id="defs3876">
    <linearGradient
       id="linearGradient4397">
      <stop
         style="stop-color:#09591f;stop-opacity:1;"
         offset="0"
         id="stop4399" />
      <stop
         style="stop-color:#78dc93;stop-opacity:1;"
         offset="1"
         id="stop4401" />
    </linearGradient>
    <inkscape:perspective
       sodipodi:type="inkscape:persp3d"
       inkscape:vp_x="0 : 526.18109 : 1"
       inkscape:vp_y="0 : 1000 : 0"
       inkscape:vp_z="744.09448 : 526.18109 : 1"
       inkscape:persp3d-origin="372.04724 : 350.78739 : 1"
       id="perspective3882" />
    <linearGradient
       inkscape:collect="always"
       xlink:href="#linearGradient4397"
       id="linearGradient4407"
       x1="0"
       y1="400"
       x2="0"
       y2="800"
       gradientUnits="userSpaceOnUse" />
  </defs>
  <sodipodi:namedview
     id="base"
     pagecolor="#ffffff"
     bordercolor="#666666"
     borderopacity="1.0"
     gridtolerance="10000"
     guidetolerance="10"
     objecttolerance="10"
     inkscape:pageopacity="0.0"
     inkscape:pageshadow="2"
     inkscape:zoom="0.98994949"
     inkscape:cx="1228.2638"
     inkscape:cy="161.45347"
     inkscape:document-units="px"
     inkscape:current-layer="layer1"
     showgrid="false"
     inkscape:window-width="1920"
     inkscape:window-height="1112"
     inkscape:window-x="0"
     inkscape:window-y="29" />
  <metadata
     id="metadata3879">
    <rdf:RDF>
      <cc:Work
         rdf:about="">
        <dc:format>image/svg+xml</dc:format>
        <dc:type
           rdf:resource="http://purl.org/dc/dcmitype/StillImage" />
      </cc:Work>
    </rdf:RDF>
  </metadata>
  <g
     inkscape:label="Layer 1"
     inkscape:groupmode="layer"
     id="layer1">
    <path
       style="fill:url(#linearGradient4407);fill-rule:evenodd;stroke:none;stroke-width:1px;stroke-linecap:butt;stroke-linejoin:miter;stroke-opacity:1;fill-opacity:1"
       d="M 0,594.09448 C 55.92932,575.32128 109.32801,550.22152 154.55334,504.68833 C 210.03887,444.11815 353.93095,476.15391 365.67522,478.42436 C 514.97613,553.19276 508.72319,562.17116 602.05092,544.08428 C 705.02878,497.26074 744.46028,513.5568 760.64487,523.88123 C 840.35911,594.76499 878.9225,622.10203 920.24897,613.7848 C 1018.3373,600.97338 1031.4241,635.97534 1086.9241,647.11984 C 1235.5242,686.20721 1241.8142,650.1503 1267.7414,619.84572 C 1289.8127,604.39578 1326.2685,453.95324 1329.3607,443.06902 C 1344.6447,389.27144 1411.1973,347.05381 1404.112,372.35835 C 1445.2016,375.21688 1489.3811,371.20884 1507.1476,425.89643 C 1519.6347,504.03754 1535.7558,542.20499 1553.6146,561.25687 C 1566.6029,585.06871 1685.9402,605.2658 1688.9751,605.70358 C 1740.2912,613.10583 1830.4127,577.62459 1829.3863,577.41931 C 1891.1857,555.87301 1913.3551,609.11311 2000,594.09448 L 2000,744.09448 L 0,744.09448 L 0,594.09448 z"
       id="path4395"
       sodipodi:nodetypes="ccccccccscccsccccc" />
    <g
       id="g4413">
      <path
         id="path4409"
         d="M 509.11688,591.56145 C 508.61181,589.03607 516.18795,552.67057 516.18795,552.67057 L 482.34784,549.64012 L 475.78185,536.00306 C 475.78185,536.00306 487.3986,546.10458 489.41891,546.10458 C 491.43921,546.10458 524.26917,547.11474 524.26917,547.11474 L 535.88593,535.49798 L 532.35039,547.61981 L 551.54329,545.09443 L 558.61436,537.51829 L 552.04837,552.1655 L 523.25902,556.71119 L 519.21841,590.5513 L 509.11688,591.56145 z"
         style="fill:#625d19;fill-rule:evenodd;stroke:none;stroke-width:1px;stroke-linecap:butt;stroke-linejoin:miter;stroke-opacity:1;fill-opacity:1" />
      <path
         id="path4411"
         d="M 475.78185,545.72578 C 475.40304,544.96816 472.37258,531.20483 472.37258,531.20483 L 484.24188,533.22514 L 487.27233,539.53859 C 487.27233,539.53859 518.46079,544.08428 518.96587,543.45293 C 519.47095,542.82159 534.11816,531.45737 534.11816,531.45737 L 540.81042,538.65471 L 558.61436,533.35141 L 567.32692,543.45293 L 561.13974,549.64012 C 561.13974,549.64012 509.24315,552.29177 508.35927,552.29177 C 507.47539,552.29177 475.65558,546.10458 475.78185,545.72578 z"
         style="fill:#26ab16;fill-rule:evenodd;stroke:none;stroke-width:1px;stroke-linecap:butt;stroke-linejoin:miter;stroke-opacity:1;fill-opacity:1;opacity:0.8" />
    </g>
    <g
       id="g4417"
       transform="translate(-52.149121,15.02602)">
      <path
         id="path4419"
         d="M 509.11688,591.56145 C 508.61181,589.03607 516.18795,552.67057 516.18795,552.67057 L 482.34784,549.64012 L 475.78185,536.00306 C 475.78185,536.00306 487.3986,546.10458 489.41891,546.10458 C 491.43921,546.10458 524.26917,547.11474 524.26917,547.11474 L 535.88593,535.49798 L 532.35039,547.61981 L 551.54329,545.09443 L 558.61436,537.51829 L 552.04837,552.1655 L 523.25902,556.71119 L 519.21841,590.5513 L 509.11688,591.56145 z"
         style="fill:#625d19;fill-opacity:1;fill-rule:evenodd;stroke:none;stroke-width:1px;stroke-linecap:butt;stroke-linejoin:miter;stroke-opacity:1" />
      <path
         id="path4421"
         d="M 475.78185,545.72578 C 475.40304,544.96816 472.37258,531.20483 472.37258,531.20483 L 484.24188,533.22514 L 487.27233,539.53859 C 487.27233,539.53859 518.46079,544.08428 518.96587,543.45293 C 519.47095,542.82159 534.11816,531.45737 534.11816,531.45737 L 540.81042,538.65471 L 558.61436,533.35141 L 567.32692,543.45293 L 561.13974,549.64012 C 561.13974,549.64012 509.24315,552.29177 508.35927,552.29177 C 507.47539,552.29177 475.65558,546.10458 475.78185,545.72578 z"
         style="opacity:0.8;fill:#26ab16;fill-opacity:1;fill-rule:evenodd;stroke:none;stroke-width:1px;stroke-linecap:butt;stroke-linejoin:miter;stroke-opacity:1" />
    </g>
    <g
       id="g4423"
       transform="translate(29.168159,19.06663)">
      <path
         id="path4425"
         d="M 509.11688,591.56145 C 508.61181,589.03607 516.18795,552.67057 516.18795,552.67057 L 482.34784,549.64012 L 475.78185,536.00306 C 475.78185,536.00306 487.3986,546.10458 489.41891,546.10458 C 491.43921,546.10458 524.26917,547.11474 524.26917,547.11474 L 535.88593,535.49798 L 532.35039,547.61981 L 551.54329,545.09443 L 558.61436,537.51829 L 552.04837,552.1655 L 523.25902,556.71119 L 519.21841,590.5513 L 509.11688,591.56145 z"
         style="fill:#625d19;fill-opacity:1;fill-rule:evenodd;stroke:none;stroke-width:1px;stroke-linecap:butt;stroke-linejoin:miter;stroke-opacity:1" />
      <path
         id="path4427"
         d="M 475.78185,545.72578 C 475.40304,544.96816 472.37258,531.20483 472.37258,531.20483 L 484.24188,533.22514 L 487.27233,539.53859 C 487.27233,539.53859 518.46079,544.08428 518.96587,543.45293 C 519.47095,542.82159 534.11816,531.45737 534.11816,531.45737 L 540.81042,538.65471 L 558.61436,533.35141 L 567.32692,543.45293 L 561.13974,549.64012 C 561.13974,549.64012 509.24315,552.29177 508.35927,552.29177 C 507.47539,552.29177 475.65558,546.10458 475.78185,545.72578 z"
         style="opacity:0.8;fill:#26ab16;fill-opacity:1;fill-rule:evenodd;stroke:none;stroke-width:1px;stroke-linecap:butt;stroke-linejoin:miter;stroke-opacity:1" />
    </g>
    <g
       id="g4429"
       transform="translate(-18.30901,36.239224)">
      <path
         id="path4431"
         d="M 509.11688,591.56145 C 508.61181,589.03607 516.18795,552.67057 516.18795,552.67057 L 482.34784,549.64012 L 475.78185,536.00306 C 475.78185,536.00306 487.3986,546.10458 489.41891,546.10458 C 491.43921,546.10458 524.26917,547.11474 524.26917,547.11474 L 535.88593,535.49798 L 532.35039,547.61981 L 551.54329,545.09443 L 558.61436,537.51829 L 552.04837,552.1655 L 523.25902,556.71119 L 519.21841,590.5513 L 509.11688,591.56145 z"
         style="fill:#625d19;fill-opacity:1;fill-rule:evenodd;stroke:none;stroke-width:1px;stroke-linecap:butt;stroke-linejoin:miter;stroke-opacity:1" />
      <path
         id="path4433"
         d="M 475.78185,545.72578 C 475.40304,544.96816 472.37258,531.20483 472.37258,531.20483 L 484.24188,533.22514 L 487.27233,539.53859 C 487.27233,539.53859 518.46079,544.08428 518.96587,543.45293 C 519.47095,542.82159 534.11816,531.45737 534.11816,531.45737 L 540.81042,538.65471 L 558.61436,533.35141 L 567.32692,543.45293 L 561.13974,549.64012 C 561.13974,549.64012 509.24315,552.29177 508.35927,552.29177 C 507.47539,552.29177 475.65558,546.10458 475.78185,545.72578 z"
         style="opacity:0.8;fill:#26ab16;fill-opacity:1;fill-rule:evenodd;stroke:none;stroke-width:1px;stroke-linecap:butt;stroke-linejoin:miter;stroke-opacity:1" />
    </g>
    <g
       id="g4435"
       transform="translate(-83.968926,32.70369)">
      <path
         id="path4437"
         d="M 509.11688,591.56145 C 508.61181,589.03607 516.18795,552.67057 516.18795,552.67057 L 482.34784,549.64012 L 475.78185,536.00306 C 475.78185,536.00306 487.3986,546.10458 489.41891,546.10458 C 491.43921,546.10458 524.26917,547.11474 524.26917,547.11474 L 535.88593,535.49798 L 532.35039,547.61981 L 551.54329,545.09443 L 558.61436,537.51829 L 552.04837,552.1655 L 523.25902,556.71119 L 519.21841,590.5513 L 509.11688,591.56145 z"
         style="fill:#625d19;fill-opacity:1;fill-rule:evenodd;stroke:none;stroke-width:1px;stroke-linecap:butt;stroke-linejoin:miter;stroke-opacity:1" />
      <path
         id="path4439"
         d="M 475.78185,545.72578 C 475.40304,544.96816 472.37258,531.20483 472.37258,531.20483 L 484.24188,533.22514 L 487.27233,539.53859 C 487.27233,539.53859 518.46079,544.08428 518.96587,543.45293 C 519.47095,542.82159 534.11816,531.45737 534.11816,531.45737 L 540.81042,538.65471 L 558.61436,533.35141 L 567.32692,543.45293 L 561.13974,549.64012 C 561.13974,549.64012 509.24315,552.29177 508.35927,552.29177 C 507.47539,552.29177 475.65558,546.10458 475.78185,545.72578 z"
         style="opacity:0.8;fill:#26ab16;fill-opacity:1;fill-rule:evenodd;stroke:none;stroke-width:1px;stroke-linecap:butt;stroke-linejoin:miter;stroke-opacity:1" />
    </g>
    <g
       id="g4441"
       transform="translate(76.140252,31.693537)">
      <path
         id="path4443"
         d="M 509.11688,591.56145 C 508.61181,589.03607 516.18795,552.67057 516.18795,552.67057 L 482.34784,549.64012 L 475.78185,536.00306 C 475.78185,536.00306 487.3986,546.10458 489.41891,546.10458 C 491.43921,546.10458 524.26917,547.11474 524.26917,547.11474 L 535.88593,535.49798 L 532.35039,547.61981 L 551.54329,545.09443 L 558.61436,537.51829 L 552.04837,552.1655 L 523.25902,556.71119 L 519.21841,590.5513 L 509.11688,591.56145 z"
         style="fill:#625d19;fill-opacity:1;fill-rule:evenodd;stroke:none;stroke-width:1px;stroke-linecap:butt;stroke-linejoin:miter;stroke-opacity:1" />
      <path
         id="path4445"
         d="M 475.78185,545.72578 C 475.40304,544.96816 472.37258,531.20483 472.37258,531.20483 L 484.24188,533.22514 L 487.27233,539.53859 C 487.27233,539.53859 518.46079,544.08428 518.96587,543.45293 C 519.47095,542.82159 534.11816,531.45737 534.11816,531.45737 L 540.81042,538.65471 L 558.61436,533.35141 L 567.32692,543.45293 L 561.13974,549.64012 C 561.13974,549.64012 509.24315,552.29177 508.35927,552.29177 C 507.47539,552.29177 475.65558,546.10458 475.78185,545.72578 z"
         style="opacity:0.8;fill:#26ab16;fill-opacity:1;fill-rule:evenodd;stroke:none;stroke-width:1px;stroke-linecap:butt;stroke-linejoin:miter;stroke-opacity:1" />
    </g>
    <g
       id="g4447"
       transform="translate(36.239226,49.371207)">
      <path
         id="path4449"
         d="M 509.11688,591.56145 C 508.61181,589.03607 516.18795,552.67057 516.18795,552.67057 L 482.34784,549.64012 L 475.78185,536.00306 C 475.78185,536.00306 487.3986,546.10458 489.41891,546.10458 C 491.43921,546.10458 524.26917,547.11474 524.26917,547.11474 L 535.88593,535.49798 L 532.35039,547.61981 L 551.54329,545.09443 L 558.61436,537.51829 L 552.04837,552.1655 L 523.25902,556.71119 L 519.21841,590.5513 L 509.11688,591.56145 z"
         style="fill:#625d19;fill-opacity:1;fill-rule:evenodd;stroke:none;stroke-width:1px;stroke-linecap:butt;stroke-linejoin:miter;stroke-opacity:1" />
      <path
         id="path4451"
         d="M 475.78185,545.72578 C 475.40304,544.96816 472.37258,531.20483 472.37258,531.20483 L 484.24188,533.22514 L 487.27233,539.53859 C 487.27233,539.53859 518.46079,544.08428 518.96587,543.45293 C 519.47095,542.82159 534.11816,531.45737 534.11816,531.45737 L 540.81042,538.65471 L 558.61436,533.35141 L 567.32692,543.45293 L 561.13974,549.64012 C 561.13974,549.64012 509.24315,552.29177 508.35927,552.29177 C 507.47539,552.29177 475.65558,546.10458 475.78185,545.72578 z"
         style="opacity:0.8;fill:#26ab16;fill-opacity:1;fill-rule:evenodd;stroke:none;stroke-width:1px;stroke-linecap:butt;stroke-linejoin:miter;stroke-opacity:1" />
    </g>
    <g
       id="g4453"
       transform="translate(1044.8765,33.208766)">
      <path
         id="path4455"
         d="M 509.11688,591.56145 C 508.61181,589.03607 516.18795,552.67057 516.18795,552.67057 L 482.34784,549.64012 L 475.78185,536.00306 C 475.78185,536.00306 487.3986,546.10458 489.41891,546.10458 C 491.43921,546.10458 524.26917,547.11474 524.26917,547.11474 L 535.88593,535.49798 L 532.35039,547.61981 L 551.54329,545.09443 L 558.61436,537.51829 L 552.04837,552.1655 L 523.25902,556.71119 L 519.21841,590.5513 L 509.11688,591.56145 z"
         style="fill:#625d19;fill-opacity:1;fill-rule:evenodd;stroke:none;stroke-width:1px;stroke-linecap:butt;stroke-linejoin:miter;stroke-opacity:1" />
      <path
         id="path4457"
         d="M 475.78185,545.72578 C 475.40304,544.96816 472.37258,531.20483 472.37258,531.20483 L 484.24188,533.22514 L 487.27233,539.53859 C 487.27233,539.53859 518.46079,544.08428 518.96587,543.45293 C 519.47095,542.82159 534.11816,531.45737 534.11816,531.45737 L 540.81042,538.65471 L 558.61436,533.35141 L 567.32692,543.45293 L 561.13974,549.64012 C 561.13974,549.64012 509.24315,552.29177 508.35927,552.29177 C 507.47539,552.29177 475.65558,546.10458 475.78185,545.72578 z"
         style="opacity:0.8;fill:#26ab16;fill-opacity:1;fill-rule:evenodd;stroke:none;stroke-width:1px;stroke-linecap:butt;stroke-linejoin:miter;stroke-opacity:1" />
    </g>
    <g
       id="g4459"
       transform="translate(1104.4755,54.421969)">
      <path
         id="path4461"
         d="M 509.11688,591.56145 C 508.61181,589.03607 516.18795,552.67057 516.18795,552.67057 L 482.34784,549.64012 L 475.78185,536.00306 C 475.78185,536.00306 487.3986,546.10458 489.41891,546.10458 C 491.43921,546.10458 524.26917,547.11474 524.26917,547.11474 L 535.88593,535.49798 L 532.35039,547.61981 L 551.54329,545.09443 L 558.61436,537.51829 L 552.04837,552.1655 L 523.25902,556.71119 L 519.21841,590.5513 L 509.11688,591.56145 z"
         style="fill:#625d19;fill-opacity:1;fill-rule:evenodd;stroke:none;stroke-width:1px;stroke-linecap:butt;stroke-linejoin:miter;stroke-opacity:1" />
      <path
         id="path4463"
         d="M 475.78185,545.72578 C 475.40304,544.96816 472.37258,531.20483 472.37258,531.20483 L 484.24188,533.22514 L 487.27233,539.53859 C 487.27233,539.53859 518.46079,544.08428 518.96587,543.45293 C 519.47095,542.82159 534.11816,531.45737 534.11816,531.45737 L 540.81042,538.65471 L 558.61436,533.35141 L 567.32692,543.45293 L 561.13974,549.64012 C 561.13974,549.64012 509.24315,552.29177 508.35927,552.29177 C 507.47539,552.29177 475.65558,546.10458 475.78185,545.72578 z"
         style="opacity:0.8;fill:#26ab16;fill-opacity:1;fill-rule:evenodd;stroke:none;stroke-width:1px;stroke-linecap:butt;stroke-linejoin:miter;stroke-opacity:1" />
    </g>
    <g
       id="g4465"
       transform="translate(1052.9578,66.5438)">
      <path
         id="path4467"
         d="M 509.11688,591.56145 C 508.61181,589.03607 516.18795,552.67057 516.18795,552.67057 L 482.34784,549.64012 L 475.78185,536.00306 C 475.78185,536.00306 487.3986,546.10458 489.41891,546.10458 C 491.43921,546.10458 524.26917,547.11474 524.26917,547.11474 L 535.88593,535.49798 L 532.35039,547.61981 L 551.54329,545.09443 L 558.61436,537.51829 L 552.04837,552.1655 L 523.25902,556.71119 L 519.21841,590.5513 L 509.11688,591.56145 z"
         style="fill:#625d19;fill-opacity:1;fill-rule:evenodd;stroke:none;stroke-width:1px;stroke-linecap:butt;stroke-linejoin:miter;stroke-opacity:1" />
      <path
         id="path4469"
         d="M 475.78185,545.72578 C 475.40304,544.96816 472.37258,531.20483 472.37258,531.20483 L 484.24188,533.22514 L 487.27233,539.53859 C 487.27233,539.53859 518.46079,544.08428 518.96587,543.45293 C 519.47095,542.82159 534.11816,531.45737 534.11816,531.45737 L 540.81042,538.65471 L 558.61436,533.35141 L 567.32692,543.45293 L 561.13974,549.64012 C 561.13974,549.64012 509.24315,552.29177 508.35927,552.29177 C 507.47539,552.29177 475.65558,546.10458 475.78185,545.72578 z"
         style="opacity:0.8;fill:#26ab16;fill-opacity:1;fill-rule:evenodd;stroke:none;stroke-width:1px;stroke-linecap:butt;stroke-linejoin:miter;stroke-opacity:1" />
    </g>
    <g
       id="g4471"
       transform="translate(1001.44,79.675783)">
      <path
         id="path4473"
         d="M 509.11688,591.56145 C 508.61181,589.03607 516.18795,552.67057 516.18795,552.67057 L 482.34784,549.64012 L 475.78185,536.00306 C 475.78185,536.00306 487.3986,546.10458 489.41891,546.10458 C 491.43921,546.10458 524.26917,547.11474 524.26917,547.11474 L 535.88593,535.49798 L 532.35039,547.61981 L 551.54329,545.09443 L 558.61436,537.51829 L 552.04837,552.1655 L 523.25902,556.71119 L 519.21841,590.5513 L 509.11688,591.56145 z"
         style="fill:#625d19;fill-opacity:1;fill-rule:evenodd;stroke:none;stroke-width:1px;stroke-linecap:butt;stroke-linejoin:miter;stroke-opacity:1" />
      <path
         id="path4475"
         d="M 475.78185,545.72578 C 475.40304,544.96816 472.37258,531.20483 472.37258,531.20483 L 484.24188,533.22514 L 487.27233,539.53859 C 487.27233,539.53859 518.46079,544.08428 518.96587,543.45293 C 519.47095,542.82159 534.11816,531.45737 534.11816,531.45737 L 540.81042,538.65471 L 558.61436,533.35141 L 567.32692,543.45293 L 561.13974,549.64012 C 561.13974,549.64012 509.24315,552.29177 508.35927,552.29177 C 507.47539,552.29177 475.65558,546.10458 475.78185,545.72578 z"
         style="opacity:0.8;fill:#26ab16;fill-opacity:1;fill-rule:evenodd;stroke:none;stroke-width:1px;stroke-linecap:butt;stroke-linejoin:miter;stroke-opacity:1" />
    </g>
    <g
       id="g4477"
       transform="translate(512.52615,61.493037)">
      <path
         id="path4479"
         d="M 509.11688,591.56145 C 508.61181,589.03607 516.18795,552.67057 516.18795,552.67057 L 482.34784,549.64012 L 475.78185,536.00306 C 475.78185,536.00306 487.3986,546.10458 489.41891,546.10458 C 491.43921,546.10458 524.26917,547.11474 524.26917,547.11474 L 535.88593,535.49798 L 532.35039,547.61981 L 551.54329,545.09443 L 558.61436,537.51829 L 552.04837,552.1655 L 523.25902,556.71119 L 519.21841,590.5513 L 509.11688,591.56145 z"
         style="fill:#625d19;fill-opacity:1;fill-rule:evenodd;stroke:none;stroke-width:1px;stroke-linecap:butt;stroke-linejoin:miter;stroke-opacity:1" />
      <path
         id="path4481"
         d="M 475.78185,545.72578 C 475.40304,544.96816 472.37258,531.20483 472.37258,531.20483 L 484.24188,533.22514 L 487.27233,539.53859 C 487.27233,539.53859 518.46079,544.08428 518.96587,543.45293 C 519.47095,542.82159 534.11816,531.45737 534.11816,531.45737 L 540.81042,538.65471 L 558.61436,533.35141 L 567.32692,543.45293 L 561.13974,549.64012 C 561.13974,549.64012 509.24315,552.29177 508.35927,552.29177 C 507.47539,552.29177 475.65558,546.10458 475.78185,545.72578 z"
         style="opacity:0.8;fill:#26ab16;fill-opacity:1;fill-rule:evenodd;stroke:none;stroke-width:1px;stroke-linecap:butt;stroke-linejoin:miter;stroke-opacity:1" />
    </g>
    <g
       id="g4483"
       transform="translate(1396.4096,84.726546)">
      <path
         id="path4485"
         d="M 509.11688,591.56145 C 508.61181,589.03607 516.18795,552.67057 516.18795,552.67057 L 482.34784,549.64012 L 475.78185,536.00306 C 475.78185,536.00306 487.3986,546.10458 489.41891,546.10458 C 491.43921,546.10458 524.26917,547.11474 524.26917,547.11474 L 535.88593,535.49798 L 532.35039,547.61981 L 551.54329,545.09443 L 558.61436,537.51829 L 552.04837,552.1655 L 523.25902,556.71119 L 519.21841,590.5513 L 509.11688,591.56145 z"
         style="fill:#625d19;fill-opacity:1;fill-rule:evenodd;stroke:none;stroke-width:1px;stroke-linecap:butt;stroke-linejoin:miter;stroke-opacity:1" />
      <path
         id="path4487"
         d="M 475.78185,545.72578 C 475.40304,544.96816 472.37258,531.20483 472.37258,531.20483 L 484.24188,533.22514 L 487.27233,539.53859 C 487.27233,539.53859 518.46079,544.08428 518.96587,543.45293 C 519.47095,542.82159 534.11816,531.45737 534.11816,531.45737 L 540.81042,538.65471 L 558.61436,533.35141 L 567.32692,543.45293 L 561.13974,549.64012 C 561.13974,549.64012 509.24315,552.29177 508.35927,552.29177 C 507.47539,552.29177 475.65558,546.10458 475.78185,545.72578 z"
         style="opacity:0.8;fill:#26ab16;fill-opacity:1;fill-rule:evenodd;stroke:none;stroke-width:1px;stroke-linecap:butt;stroke-linejoin:miter;stroke-opacity:1" />
    </g>
    <g
       id="g4489"
       transform="translate(-363.27611,-10.227794)">
      <path
         id="path4491"
         d="M 509.11688,591.56145 C 508.61181,589.03607 516.18795,552.67057 516.18795,552.67057 L 482.34784,549.64012 L 475.78185,536.00306 C 475.78185,536.00306 487.3986,546.10458 489.41891,546.10458 C 491.43921,546.10458 524.26917,547.11474 524.26917,547.11474 L 535.88593,535.49798 L 532.35039,547.61981 L 551.54329,545.09443 L 558.61436,537.51829 L 552.04837,552.1655 L 523.25902,556.71119 L 519.21841,590.5513 L 509.11688,591.56145 z"
         style="fill:#625d19;fill-opacity:1;fill-rule:evenodd;stroke:none;stroke-width:1px;stroke-linecap:butt;stroke-linejoin:miter;stroke-opacity:1" />
      <path
         id="path4493"
         d="M 475.78185,545.72578 C 475.40304,544.96816 472.37258,531.20483 472.37258,531.20483 L 484.24188,533.22514 L 487.27233,539.53859 C 487.27233,539.53859 518.46079,544.08428 518.96587,543.45293 C 519.47095,542.82159 534.11816,531.45737 534.11816,531.45737 L 540.81042,538.65471 L 558.61436,533.35141 L 567.32692,543.45293 L 561.13974,549.64012 C 561.13974,549.64012 509.24315,552.29177 508.35927,552.29177 C 507.47539,552.29177 475.65558,546.10458 475.78185,545.72578 z"
         style="opacity:0.8;fill:#26ab16;fill-opacity:1;fill-rule:evenodd;stroke:none;stroke-width:1px;stroke-linecap:butt;stroke-linejoin:miter;stroke-opacity:1" />
    </g>
    <g
       id="g4495"
       transform="translate(-410.75328,25.127545)">
      <path
         id="path4497"
         d="M 509.11688,591.56145 C 508.61181,589.03607 516.18795,552.67057 516.18795,552.67057 L 482.34784,549.64012 L 475.78185,536.00306 C 475.78185,536.00306 487.3986,546.10458 489.41891,546.10458 C 491.43921,546.10458 524.26917,547.11474 524.26917,547.11474 L 535.88593,535.49798 L 532.35039,547.61981 L 551.54329,545.09443 L 558.61436,537.51829 L 552.04837,552.1655 L 523.25902,556.71119 L 519.21841,590.5513 L 509.11688,591.56145 z"
         style="fill:#625d19;fill-opacity:1;fill-rule:evenodd;stroke:none;stroke-width:1px;stroke-linecap:butt;stroke-linejoin:miter;stroke-opacity:1" />
      <path
         id="path4499"
         d="M 475.78185,545.72578 C 475.40304,544.96816 472.37258,531.20483 472.37258,531.20483 L 484.24188,533.22514 L 487.27233,539.53859 C 487.27233,539.53859 518.46079,544.08428 518.96587,543.45293 C 519.47095,542.82159 534.11816,531.45737 534.11816,531.45737 L 540.81042,538.65471 L 558.61436,533.35141 L 567.32692,543.45293 L 561.13974,549.64012 C 561.13974,549.64012 509.24315,552.29177 508.35927,552.29177 C 507.47539,552.29177 475.65558,546.10458 475.78185,545.72578 z"
         style="opacity:0.8;fill:#26ab16;fill-opacity:1;fill-rule:evenodd;stroke:none;stroke-width:1px;stroke-linecap:butt;stroke-linejoin:miter;stroke-opacity:1" />
    </g>
    <g
       id="g4501"
       transform="translate(-343.07305,33.208766)">
      <path
         id="path4503"
         d="M 509.11688,591.56145 C 508.61181,589.03607 516.18795,552.67057 516.18795,552.67057 L 482.34784,549.64012 L 475.78185,536.00306 C 475.78185,536.00306 487.3986,546.10458 489.41891,546.10458 C 491.43921,546.10458 524.26917,547.11474 524.26917,547.11474 L 535.88593,535.49798 L 532.35039,547.61981 L 551.54329,545.09443 L 558.61436,537.51829 L 552.04837,552.1655 L 523.25902,556.71119 L 519.21841,590.5513 L 509.11688,591.56145 z"
         style="fill:#625d19;fill-opacity:1;fill-rule:evenodd;stroke:none;stroke-width:1px;stroke-linecap:butt;stroke-linejoin:miter;stroke-opacity:1" />
      <path
         id="path4505"
         d="M 475.78185,545.72578 C 475.40304,544.96816 472.37258,531.20483 472.37258,531.20483 L 484.24188,533.22514 L 487.27233,539.53859 C 487.27233,539.53859 518.46079,544.08428 518.96587,543.45293 C 519.47095,542.82159 534.11816,531.45737 534.11816,531.45737 L 540.81042,538.65471 L 558.61436,533.35141 L 567.32692,543.45293 L 561.13974,549.64012 C 561.13974,549.64012 509.24315,552.29177 508.35927,552.29177 C 507.47539,552.29177 475.65558,546.10458 475.78185,545.72578 z"
         style="opacity:0.8;fill:#26ab16;fill-opacity:1;fill-rule:evenodd;stroke:none;stroke-width:1px;stroke-linecap:butt;stroke-linejoin:miter;stroke-opacity:1" />
    </g>
    <path
       style="fill:#76735c;fill-rule:evenodd;stroke:none;stroke-width:1px;stroke-linecap:butt;stroke-linejoin:miter;stroke-opacity:1;fill-opacity:1"
       d="M 254.05337,517.31524 C 249.99818,515.90394 257.25975,417.84601 282.84271,418.32029 C 312.43368,418.86887 312.31499,517.17296 309.61175,517.31524 L 254.05337,517.31524 z"
       id="path4507"
       sodipodi:nodetypes="cscc" />
    <path
       style="fill:#5b481e;fill-rule:evenodd;stroke:none;stroke-width:1px;stroke-linecap:butt;stroke-linejoin:miter;stroke-opacity:1;fill-opacity:1"
       d="M 280.82241,435.99796 L 276.52926,382.71241 C 276.52926,382.71241 290.6714,380.94464 289.91378,381.95479 C 289.15617,382.96495 284.35794,436.25049 284.35794,436.25049 L 340.92648,427.15912 L 340.92648,445.34187 L 285.11556,440.54364 L 288.90363,487.01066 L 272.48865,487.01066 L 279.05464,440.54364 L 235.61808,446.60456 L 235.87062,430.69465 L 280.82241,435.99796 z"
       id="path4509" />
    <path
       style="fill:#ab7b30;fill-rule:evenodd;stroke:none;stroke-width:1px;stroke-linecap:butt;stroke-linejoin:miter;stroke-opacity:1;fill-opacity:1"
       d="M 1336.9369,472.86852 L 1272.2871,471.85837 L 1271.277,481.9599 L 1336.4318,482.46497 L 1336.9369,472.86852 z"
       id="path4511" />
    <path
       style="fill:#626262;fill-rule:evenodd;stroke:none;stroke-width:1px;stroke-linecap:butt;stroke-linejoin:miter;stroke-opacity:1;fill-opacity:1"
       d="M 1274.3074,482.46497 C 1289.4597,497.11218 1307.6425,540.04367 1307.6425,540.04367 L 1335.4217,481.9599 L 1274.3074,482.46497 z"
       id="path4513" />
  </g>
</svg>
