<?xml version="1.0" encoding="UTF-8" standalone="no"?>
<!-- Created with Inkscape (http://www.inkscape.org/) -->
<svg
   xmlns:dc="http://purl.org/dc/elements/1.1/"
   xmlns:cc="http://creativecommons.org/ns#"
   xmlns:rdf="http://www.w3.org/1999/02/22-rdf-syntax-ns#"
   xmlns:svg="http://www.w3.org/2000/svg"
   xmlns="http://www.w3.org/2000/svg"
   xmlns:sodipodi="http://sodipodi.sourceforge.net/DTD/sodipodi-0.dtd"
   xmlns:inkscape="http://www.inkscape.org/namespaces/inkscape"
   width="744.09448819"
   height="1052.3622047"
   id="svg2"
   sodipodi:version="0.32"
   inkscape:version="0.46"
   sodipodi:docname="smallbird.svg"
   inkscape:output_extension="org.inkscape.output.svg.inkscape">
  <defs
     id="defs4">
    <inkscape:perspective
       sodipodi:type="inkscape:persp3d"
       inkscape:vp_x="0 : 526.18109 : 1"
       inkscape:vp_y="0 : 1000 : 0"
       inkscape:vp_z="744.09448 : 526.18109 : 1"
       inkscape:persp3d-origin="372.04724 : 350.78739 : 1"
       id="perspective10" />
  </defs>
  <sodipodi:namedview
     id="base"
     pagecolor="#ffffff"
     bordercolor="#666666"
     borderopacity="1.0"
     gridtolerance="10000"
     guidetolerance="10"
     objecttolerance="10"
     inkscape:pageopacity="0.0"
     inkscape:pageshadow="2"
     inkscape:zoom="7.9195959"
     inkscape:cx="232.77127"
     inkscape:cy="28.080937"
     inkscape:document-units="px"
     inkscape:current-layer="layer1"
     showgrid="false"
     inkscape:window-width="1920"
     inkscape:window-height="1112"
     inkscape:window-x="0"
     inkscape:window-y="29" />
  <metadata
     id="metadata7">
    <rdf:RDF>
      <cc:Work
         rdf:about="">
        <dc:format>image/svg+xml</dc:format>
        <dc:type
           rdf:resource="http://purl.org/dc/dcmitype/StillImage" />
      </cc:Work>
    </rdf:RDF>
  </metadata>
  <g
     inkscape:label="Layer 1"
     inkscape:groupmode="layer"
     id="layer1">
    <g
       id="g3181">
      <g
         transform="translate(-2.374369,0.2944826)"
         id="g3163">
        <path
           style="fill:#4d4d4d;fill-opacity:1;fill-rule:evenodd;stroke:none;stroke-width:1px;stroke-linecap:butt;stroke-linejoin:miter;stroke-opacity:1"
           d="M 12.374369,1028.885 L 16.920055,1025.8546 C 17.795736,1022.5932 20.889756,1014.7569 28.031733,1025.602 C 41.76272,1035.6464 43.048558,1013.1415 65.659916,1034.4409 L 85.35789,1017.0157 C 89.664929,1021.1671 88.444771,1020.8786 92.681496,1022.5715 C 84.077974,1028.3768 75.740742,1032.5707 70.45814,1037.9764 C 63.570278,1041.3511 61.37897,1045.5547 43.941636,1047.0677 C 37.830183,1044.5929 30.15295,1043.6838 27.779195,1037.4713 C 23.867304,1029.6275 20.689167,1029.855 17.425131,1029.1376 L 12.374369,1028.885 z"
           id="path3155"
           sodipodi:nodetypes="ccccccccccc" />
        <path
           style="fill:#333333;fill-opacity:1;fill-rule:evenodd;stroke:none;stroke-width:1px;stroke-linecap:butt;stroke-linejoin:miter;stroke-opacity:1"
           d="M 40.65864,1031.3406 C 43.036668,1031.6324 60.817328,1007.6131 58.210041,1006.3393 C 65.504328,1009.908 66.394236,1015.2735 64.270955,1017.8298 C 60.879826,1023.9434 63.144728,1025.3963 46.340748,1032.3508 L 40.65864,1031.3406 z"
           id="path3161"
           sodipodi:nodetypes="ccccc" />
      </g>
      <path
         d="M 19.634839,1024.6777 A 1.2626907,1.1679889 0 1 1 19.634839,1024.6777 A 1.2626907,1.1679889 0 1 1 19.634839,1024.6777 z"
         sodipodi:ry="1.1679889"
         sodipodi:rx="1.2626907"
         sodipodi:cy="1024.6777"
         sodipodi:cx="18.372149"
         id="path3179"
         style="opacity:0.8;fill:#ffffff;fill-opacity:1;fill-rule:evenodd;stroke:none;stroke-width:3;stroke-linecap:butt;stroke-linejoin:miter;marker:none;marker-start:none;marker-mid:none;marker-end:none;stroke-miterlimit:4;stroke-dasharray:none;stroke-dashoffset:0;stroke-opacity:1;visibility:visible;display:inline;overflow:visible;enable-background:accumulate"
         sodipodi:type="arc" />
    </g>
    <g
       id="g3187"
       transform="translate(100,1.7187404e-8)">
      <g
         transform="translate(-2.374369,0.2944826)"
         id="g3189">
        <path
           style="fill:#4d4d4d;fill-opacity:1;fill-rule:evenodd;stroke:none;stroke-width:1px;stroke-linecap:butt;stroke-linejoin:miter;stroke-opacity:1"
           d="M 12.374369,1028.885 L 16.920055,1025.8546 C 17.795736,1022.5932 20.889756,1014.7569 28.031733,1025.602 C 41.76272,1035.6464 43.048558,1013.1415 65.659916,1034.4409 L 85.35789,1017.0157 C 89.664929,1021.1671 88.444771,1020.8786 92.681496,1022.5715 C 84.077974,1028.3768 75.740742,1032.5707 70.45814,1037.9764 C 63.570278,1041.3511 61.37897,1045.5547 43.941636,1047.0677 C 37.830183,1044.5929 30.15295,1043.6838 27.779195,1037.4713 C 23.867304,1029.6275 20.689167,1029.855 17.425131,1029.1376 L 12.374369,1028.885 z"
           id="path3191"
           sodipodi:nodetypes="ccccccccccc" />
        <path
           style="fill:#333333;fill-opacity:1;fill-rule:evenodd;stroke:none;stroke-width:1px;stroke-linecap:butt;stroke-linejoin:miter;stroke-opacity:1"
           d="M 40.65864,1031.3406 C 43.036668,1031.6324 73.317965,1022.134 70.710678,1020.8602 C 78.004965,1024.4289 78.516067,1028.4055 63.387072,1033.1084 C 60.248481,1034.9288 49.633938,1033.225 46.340748,1032.3508 L 40.65864,1031.3406 z"
           id="path3193"
           sodipodi:nodetypes="ccccc" />
      </g>
      <path
         d="M 19.634839,1024.6777 A 1.2626907,1.1679889 0 1 1 17.109458,1024.6777 A 1.2626907,1.1679889 0 1 1 19.634839,1024.6777 z"
         sodipodi:ry="1.1679889"
         sodipodi:rx="1.2626907"
         sodipodi:cy="1024.6777"
         sodipodi:cx="18.372149"
         id="path3195"
         style="opacity:0.8;fill:#ffffff;fill-opacity:1;fill-rule:evenodd;stroke:none;stroke-width:3;stroke-linecap:butt;stroke-linejoin:miter;marker:none;marker-start:none;marker-mid:none;marker-end:none;stroke-miterlimit:4;stroke-dasharray:none;stroke-dashoffset:0;stroke-opacity:1;visibility:visible;display:inline;overflow:visible;enable-background:accumulate"
         sodipodi:type="arc" />
    </g>
    <g
       id="g3197"
       transform="translate(200,1.7187404e-8)">
      <g
         transform="translate(-2.374369,0.2944826)"
         id="g3199">
        <path
           style="fill:#4d4d4d;fill-opacity:1;fill-rule:evenodd;stroke:none;stroke-width:1px;stroke-linecap:butt;stroke-linejoin:miter;stroke-opacity:1"
           d="M 12.374369,1028.885 L 16.920055,1025.8546 C 17.795736,1022.5932 20.889756,1014.7569 28.031733,1025.602 C 41.76272,1035.6464 43.048558,1013.1415 65.659916,1034.4409 L 85.35789,1017.0157 C 89.664929,1021.1671 88.444771,1020.8786 92.681496,1022.5715 C 84.077974,1028.3768 75.740742,1032.5707 70.45814,1037.9764 C 63.570278,1041.3511 61.37897,1045.5547 43.941636,1047.0677 C 37.830183,1044.5929 30.15295,1043.6838 27.779195,1037.4713 C 23.867304,1029.6275 20.689167,1029.855 17.425131,1029.1376 L 12.374369,1028.885 z"
           id="path3201"
           sodipodi:nodetypes="ccccccccccc" />
        <path
           style="fill:#333333;fill-opacity:1;fill-rule:evenodd;stroke:none;stroke-width:1px;stroke-linecap:butt;stroke-linejoin:miter;stroke-opacity:1"
           d="M 40.65864,1031.3406 C 40.321515,1033.2231 45.802897,1043.4887 57.073619,1046.2403 C 63.230209,1049.0506 67.347538,1044.7194 69.06918,1042.0103 C 62.964273,1039.7359 50.025176,1038.119 46.340748,1032.3508 L 40.65864,1031.3406 z"
           id="path3203"
           sodipodi:nodetypes="ccccc" />
      </g>
      <path
         d="M 19.634839,1024.6777 A 1.2626907,1.1679889 0 1 1 17.109458,1024.6777 A 1.2626907,1.1679889 0 1 1 19.634839,1024.6777 z"
         sodipodi:ry="1.1679889"
         sodipodi:rx="1.2626907"
         sodipodi:cy="1024.6777"
         sodipodi:cx="18.372149"
         id="path3205"
         style="opacity:0.8;fill:#ffffff;fill-opacity:1;fill-rule:evenodd;stroke:none;stroke-width:3;stroke-linecap:butt;stroke-linejoin:miter;marker:none;marker-start:none;marker-mid:none;marker-end:none;stroke-miterlimit:4;stroke-dasharray:none;stroke-dashoffset:0;stroke-opacity:1;visibility:visible;display:inline;overflow:visible;enable-background:accumulate"
         sodipodi:type="arc" />
    </g>
  </g>
</svg>
