<?xml version="1.0" encoding="UTF-8" standalone="no"?>
<!-- Created with Inkscape (http://www.inkscape.org/) -->
<svg
   xmlns:dc="http://purl.org/dc/elements/1.1/"
   xmlns:cc="http://creativecommons.org/ns#"
   xmlns:rdf="http://www.w3.org/1999/02/22-rdf-syntax-ns#"
   xmlns:svg="http://www.w3.org/2000/svg"
   xmlns="http://www.w3.org/2000/svg"
   xmlns:xlink="http://www.w3.org/1999/xlink"
   xmlns:sodipodi="http://sodipodi.sourceforge.net/DTD/sodipodi-0.dtd"
   xmlns:inkscape="http://www.inkscape.org/namespaces/inkscape"
   width="744.09448819"
   height="1052.3622047"
   id="svg2"
   sodipodi:version="0.32"
   inkscape:version="0.46"
   sodipodi:docname="villager.svg"
   inkscape:output_extension="org.inkscape.output.svg.inkscape">
  <defs
     id="defs4">
    <inkscape:perspective
       sodipodi:type="inkscape:persp3d"
       inkscape:vp_x="0 : 526.18109 : 1"
       inkscape:vp_y="0 : 1000 : 0"
       inkscape:vp_z="744.09448 : 526.18109 : 1"
       inkscape:persp3d-origin="372.04724 : 350.78739 : 1"
       id="perspective10" />
    <inkscape:perspective
       id="perspective2464"
       inkscape:persp3d-origin="372.04724 : 350.78739 : 1"
       inkscape:vp_z="744.09448 : 526.18109 : 1"
       inkscape:vp_y="0 : 1000 : 0"
       inkscape:vp_x="0 : 526.18109 : 1"
       sodipodi:type="inkscape:persp3d" />
  </defs>
  <sodipodi:namedview
     id="base"
     pagecolor="#ffffff"
     bordercolor="#666666"
     borderopacity="1.0"
     gridtolerance="10000"
     guidetolerance="10"
     objecttolerance="10"
     inkscape:pageopacity="0.0"
     inkscape:pageshadow="2"
     inkscape:zoom="0.49497475"
     inkscape:cx="222.27619"
     inkscape:cy="304.20907"
     inkscape:document-units="px"
     inkscape:current-layer="layer1"
     showgrid="false"
     inkscape:window-width="1280"
     inkscape:window-height="712"
     inkscape:window-x="0"
     inkscape:window-y="29" />
  <metadata
     id="metadata7">
    <rdf:RDF>
      <cc:Work
         rdf:about="">
        <dc:format>image/svg+xml</dc:format>
        <dc:type
           rdf:resource="http://purl.org/dc/dcmitype/StillImage" />
      </cc:Work>
    </rdf:RDF>
  </metadata>
  <g
     inkscape:label="Layer 1"
     inkscape:groupmode="layer"
     id="layer1">
    <image
       y="252.36218"
       x="0"
       id="reference-image"
       height="800"
       width="600"
       sodipodi:absref="/home/siim/dev/magic/img/dude.png"
       xlink:href="dude.png"
       style="opacity:0;fill:#ff9070;fill-opacity:1"
       inkscape:export-filename="/home/siim/dev/magic/img/dude_svg.png"
       inkscape:export-xdpi="45"
       inkscape:export-ydpi="45" />
    <g
       id="dude1"
       transform="translate(-0.1267349,0)">
      <path
         sodipodi:nodetypes="ccccccc"
         id="path2470"
         d="M 38.571429,990.93361 C 72.865087,1005.5178 128.58544,1007.5275 164.28571,992.36218 C 180.14151,883.37577 177.44368,797.58139 162.85714,726.6479 C 158.96873,690.60474 144.80844,656.029 114.28571,623.79075 C 168.95834,578.71897 174.45991,380.88237 108.57143,312.36218 C 74.765042,360.14693 33.721066,392.6418 65.714286,586.6479 C 19.496663,593.55945 16.190477,953.31457 38.571429,990.93361 z"
         style="opacity:1;fill:#003200;fill-opacity:1;fill-rule:evenodd;stroke:none;stroke-width:1px;stroke-linecap:butt;stroke-linejoin:miter;stroke-opacity:1" />
      <path
         sodipodi:nodetypes="cccc"
         id="path3242"
         d="M 108.57143,603.79075 C 122.68275,551.5406 108.6311,516.84124 91.428571,470.93362 C 97.715803,430.52999 106.37819,404.76488 128.57143,386.6479 C 159.17034,434.08162 141.74856,540.63646 108.57143,603.79075 z"
         style="fill:#b9593e;fill-opacity:1;fill-rule:evenodd;stroke:#000000;stroke-width:1px;stroke-linecap:butt;stroke-linejoin:miter;stroke-opacity:1" />
      <path
         d="M 123.57143,452.71933 A 6.7857146,13.928572 0 1 1 110,452.71933 A 6.7857146,13.928572 0 1 1 123.57143,452.71933 z"
         sodipodi:ry="13.928572"
         sodipodi:rx="6.7857146"
         sodipodi:cy="452.71933"
         sodipodi:cx="116.78571"
         id="path3244"
         style="opacity:1;fill:#ffffff;fill-opacity:1;stroke:none;stroke-width:1;stroke-linecap:butt;stroke-linejoin:miter;stroke-miterlimit:4;stroke-dasharray:none;stroke-opacity:1"
         sodipodi:type="arc" />
      <path
         transform="translate(16.071429,-0.3571479)"
         d="M 123.57143,452.71933 A 6.7857146,13.928572 0 1 1 110,452.71933 A 6.7857146,13.928572 0 1 1 123.57143,452.71933 z"
         sodipodi:ry="13.928572"
         sodipodi:rx="6.7857146"
         sodipodi:cy="452.71933"
         sodipodi:cx="116.78571"
         id="path3246"
         style="opacity:1;fill:#ffffff;fill-opacity:1;stroke:none;stroke-width:1;stroke-linecap:butt;stroke-linejoin:miter;stroke-miterlimit:4;stroke-dasharray:none;stroke-opacity:1"
         sodipodi:type="arc" />
      <path
         transform="translate(1.0714286,0.8928571)"
         d="M 120.53572,459.50504 A 4.8214283,5.5357141 0 1 1 110.89286,459.50504 A 4.8214283,5.5357141 0 1 1 120.53572,459.50504 z"
         sodipodi:ry="5.5357141"
         sodipodi:rx="4.8214283"
         sodipodi:cy="459.50504"
         sodipodi:cx="115.71429"
         id="path3248"
         style="opacity:1;fill:#000000;fill-opacity:1;stroke:none;stroke-width:1;stroke-linecap:butt;stroke-linejoin:miter;stroke-miterlimit:4;stroke-dasharray:none;stroke-opacity:1"
         sodipodi:type="arc" />
      <path
         transform="translate(17.142856,0.7142888)"
         d="M 120.53572,459.50504 A 4.8214283,5.5357141 0 1 1 110.89286,459.50504 A 4.8214283,5.5357141 0 1 1 120.53572,459.50504 z"
         sodipodi:ry="5.5357141"
         sodipodi:rx="4.8214283"
         sodipodi:cy="459.50504"
         sodipodi:cx="115.71429"
         id="path3252"
         style="opacity:1;fill:#000000;fill-opacity:1;stroke:none;stroke-width:1;stroke-linecap:butt;stroke-linejoin:miter;stroke-miterlimit:4;stroke-dasharray:none;stroke-opacity:1"
         sodipodi:type="arc" />
      <path
         sodipodi:nodetypes="ccccccc"
         id="path3254"
         d="M 81.071429,1000.2193 L 80.714286,1011.2908 C 69.49264,1016.189 72.685768,1022.2884 72.142857,1028.0765 L 135.71429,1028.4336 C 139.76766,1013.152 107.73142,1014.192 103.21429,1012.3622 L 103.21429,1002.3622 L 81.071429,1000.2193 z"
         style="fill:#ff9070;fill-opacity:1;fill-rule:evenodd;stroke:none;stroke-width:1px;stroke-linecap:butt;stroke-linejoin:miter;stroke-opacity:1" />
      <path
         sodipodi:nodetypes="ccccccccccccc"
         id="path3256"
         d="M 63.928572,1028.7908 L 152.5,1028.7908 L 151.78571,1036.6479 L 134.64286,1036.6479 L 135,1052.7193 L 127.85714,1052.3622 L 127.85714,1044.505 L 87.857143,1044.505 L 88.214286,1052.7193 L 79.285714,1051.6479 L 79.285714,1036.6479 L 63.571428,1036.2908 L 63.928572,1028.7908 z"
         style="fill:#000000;fill-opacity:1;fill-rule:evenodd;stroke:none;stroke-width:1px;stroke-linecap:butt;stroke-linejoin:miter;stroke-opacity:1" />
    </g>
    <g
       id="dude2"
       transform="translate(199.87327,-0.3571174)">
      <path
         sodipodi:nodetypes="ccccccc"
         id="path3280"
         d="M 38.571429,990.93361 C 72.865087,1005.5178 128.58544,1007.5275 164.28571,992.36218 C 180.14151,883.37577 177.44368,797.58139 162.85714,726.6479 C 158.96873,690.60474 144.80844,656.029 114.28571,623.79075 C 168.95834,578.71897 174.45991,380.88237 108.57143,312.36218 C 74.765042,360.14693 33.721066,392.6418 65.714286,586.6479 C 19.496663,593.55945 16.190477,953.31457 38.571429,990.93361 z"
         style="opacity:1;fill:#003200;fill-opacity:1;fill-rule:evenodd;stroke:none;stroke-width:1px;stroke-linecap:butt;stroke-linejoin:miter;stroke-opacity:1" />
      <path
         sodipodi:nodetypes="cccc"
         id="path3282"
         d="M 108.57143,603.79075 C 122.68275,551.5406 108.6311,516.84124 91.428571,470.93362 C 97.715803,430.52999 106.37819,404.76488 128.57143,386.6479 C 159.17034,434.08162 141.74856,540.63646 108.57143,603.79075 z"
         style="fill:#b9593e;fill-opacity:1;fill-rule:evenodd;stroke:#000000;stroke-width:1px;stroke-linecap:butt;stroke-linejoin:miter;stroke-opacity:1" />
      <path
         d="M 123.57143,452.71933 A 6.7857146,13.928572 0 1 1 110,452.71933 A 6.7857146,13.928572 0 1 1 123.57143,452.71933 z"
         sodipodi:ry="13.928572"
         sodipodi:rx="6.7857146"
         sodipodi:cy="452.71933"
         sodipodi:cx="116.78571"
         id="path3284"
         style="opacity:1;fill:#ffffff;fill-opacity:1;stroke:none;stroke-width:1;stroke-linecap:butt;stroke-linejoin:miter;stroke-miterlimit:4;stroke-dasharray:none;stroke-opacity:1"
         sodipodi:type="arc" />
      <path
         transform="translate(16.071429,-0.3571479)"
         d="M 123.57143,452.71933 A 6.7857146,13.928572 0 1 1 110,452.71933 A 6.7857146,13.928572 0 1 1 123.57143,452.71933 z"
         sodipodi:ry="13.928572"
         sodipodi:rx="6.7857146"
         sodipodi:cy="452.71933"
         sodipodi:cx="116.78571"
         id="path3286"
         style="opacity:1;fill:#ffffff;fill-opacity:1;stroke:none;stroke-width:1;stroke-linecap:butt;stroke-linejoin:miter;stroke-miterlimit:4;stroke-dasharray:none;stroke-opacity:1"
         sodipodi:type="arc" />
      <path
         transform="translate(1.0714286,0.8928571)"
         d="M 120.53572,459.50504 A 4.8214283,5.5357141 0 1 1 110.89286,459.50504 A 4.8214283,5.5357141 0 1 1 120.53572,459.50504 z"
         sodipodi:ry="5.5357141"
         sodipodi:rx="4.8214283"
         sodipodi:cy="459.50504"
         sodipodi:cx="115.71429"
         id="path3288"
         style="opacity:1;fill:#000000;fill-opacity:1;stroke:none;stroke-width:1;stroke-linecap:butt;stroke-linejoin:miter;stroke-miterlimit:4;stroke-dasharray:none;stroke-opacity:1"
         sodipodi:type="arc" />
      <path
         transform="translate(17.142856,0.7142888)"
         d="M 120.53572,459.50504 A 4.8214283,5.5357141 0 1 1 110.89286,459.50504 A 4.8214283,5.5357141 0 1 1 120.53572,459.50504 z"
         sodipodi:ry="5.5357141"
         sodipodi:rx="4.8214283"
         sodipodi:cy="459.50504"
         sodipodi:cx="115.71429"
         id="path3290"
         style="opacity:1;fill:#000000;fill-opacity:1;stroke:none;stroke-width:1;stroke-linecap:butt;stroke-linejoin:miter;stroke-miterlimit:4;stroke-dasharray:none;stroke-opacity:1"
         sodipodi:type="arc" />
      <path
         sodipodi:nodetypes="ccccccc"
         id="path3292"
         d="M 81.071429,1000.2193 L 80.714286,1011.2908 C 72.018021,1021.2398 77.231455,1025.3189 76.688544,1031.107 L 143.79551,1018.3321 C 147.84888,1003.0505 107.73142,1014.192 103.21429,1012.3622 L 103.21429,1002.3622 L 81.071429,1000.2193 z"
         style="fill:#ff9070;fill-opacity:1;fill-rule:evenodd;stroke:none;stroke-width:1px;stroke-linecap:butt;stroke-linejoin:miter;stroke-opacity:1" />
      <path
         sodipodi:nodetypes="ccccccccccccc"
         id="path3294"
         d="M 68.582003,1031.5809 L 155.80784,1016.2006 L 156.46877,1024.0624 L 139.58636,1027.0392 L 142.72884,1042.8044 L 135.63249,1043.6931 L 134.2681,1035.9553 L 94.875788,1042.9012 L 96.653903,1050.9287 L 87.67493,1051.424 L 85.070207,1036.6519 L 69.532647,1039.029 L 68.582003,1031.5809 z"
         style="fill:#000000;fill-opacity:1;fill-rule:evenodd;stroke:none;stroke-width:1px;stroke-linecap:butt;stroke-linejoin:miter;stroke-opacity:1" />
    </g>
    <g
       id="dude3"
       transform="translate(399.87327,-0.3571174)">
      <path
         sodipodi:nodetypes="ccccccc"
         id="path3298"
         d="M 38.571429,990.93361 C 72.865087,1005.5178 128.58544,1007.5275 164.28571,992.36218 C 180.14151,883.37577 177.44368,797.58139 162.85714,726.6479 C 158.96873,690.60474 144.80844,656.029 114.28571,623.79075 C 168.95834,578.71897 174.45991,380.88237 108.57143,312.36218 C 74.765042,360.14693 33.721066,392.6418 65.714286,586.6479 C 19.496663,593.55945 16.190477,953.31457 38.571429,990.93361 z"
         style="opacity:1;fill:#003200;fill-opacity:1;fill-rule:evenodd;stroke:none;stroke-width:1px;stroke-linecap:butt;stroke-linejoin:miter;stroke-opacity:1" />
      <path
         sodipodi:nodetypes="cccc"
         id="path3300"
         d="M 108.57143,603.79075 C 122.68275,551.5406 108.6311,516.84124 91.428571,470.93362 C 97.715803,430.52999 106.37819,404.76488 128.57143,386.6479 C 159.17034,434.08162 141.74856,540.63646 108.57143,603.79075 z"
         style="fill:#b9593e;fill-opacity:1;fill-rule:evenodd;stroke:#000000;stroke-width:1px;stroke-linecap:butt;stroke-linejoin:miter;stroke-opacity:1" />
      <path
         d="M 123.57143,452.71933 A 6.7857146,13.928572 0 1 1 110,452.71933 A 6.7857146,13.928572 0 1 1 123.57143,452.71933 z"
         sodipodi:ry="13.928572"
         sodipodi:rx="6.7857146"
         sodipodi:cy="452.71933"
         sodipodi:cx="116.78571"
         id="path3302"
         style="opacity:1;fill:#ffffff;fill-opacity:1;stroke:none;stroke-width:1;stroke-linecap:butt;stroke-linejoin:miter;stroke-miterlimit:4;stroke-dasharray:none;stroke-opacity:1"
         sodipodi:type="arc" />
      <path
         transform="translate(16.071429,-0.3571479)"
         d="M 123.57143,452.71933 A 6.7857146,13.928572 0 1 1 110,452.71933 A 6.7857146,13.928572 0 1 1 123.57143,452.71933 z"
         sodipodi:ry="13.928572"
         sodipodi:rx="6.7857146"
         sodipodi:cy="452.71933"
         sodipodi:cx="116.78571"
         id="path3304"
         style="opacity:1;fill:#ffffff;fill-opacity:1;stroke:none;stroke-width:1;stroke-linecap:butt;stroke-linejoin:miter;stroke-miterlimit:4;stroke-dasharray:none;stroke-opacity:1"
         sodipodi:type="arc" />
      <path
         transform="translate(1.0714286,0.8928571)"
         d="M 120.53572,459.50504 A 4.8214283,5.5357141 0 1 1 110.89286,459.50504 A 4.8214283,5.5357141 0 1 1 120.53572,459.50504 z"
         sodipodi:ry="5.5357141"
         sodipodi:rx="4.8214283"
         sodipodi:cy="459.50504"
         sodipodi:cx="115.71429"
         id="path3306"
         style="opacity:1;fill:#000000;fill-opacity:1;stroke:none;stroke-width:1;stroke-linecap:butt;stroke-linejoin:miter;stroke-miterlimit:4;stroke-dasharray:none;stroke-opacity:1"
         sodipodi:type="arc" />
      <path
         transform="translate(17.142856,0.7142888)"
         d="M 120.53572,459.50504 A 4.8214283,5.5357141 0 1 1 110.89286,459.50504 A 4.8214283,5.5357141 0 1 1 120.53572,459.50504 z"
         sodipodi:ry="5.5357141"
         sodipodi:rx="4.8214283"
         sodipodi:cy="459.50504"
         sodipodi:cx="115.71429"
         id="path3308"
         style="opacity:1;fill:#000000;fill-opacity:1;stroke:none;stroke-width:1;stroke-linecap:butt;stroke-linejoin:miter;stroke-miterlimit:4;stroke-dasharray:none;stroke-opacity:1"
         sodipodi:type="arc" />
      <path
         sodipodi:nodetypes="ccccccc"
         id="path3310"
         d="M 81.071429,1000.2193 L 78.693981,1004.2197 C 67.472335,1009.1179 68.645158,1014.2072 68.102247,1019.9953 L 129.1483,1029.9488 C 133.20167,1014.6672 104.19589,1012.6768 99.678756,1010.847 L 103.21429,1002.3622 L 81.071429,1000.2193 z"
         style="fill:#ff9070;fill-opacity:1;fill-rule:evenodd;stroke:none;stroke-width:1px;stroke-linecap:butt;stroke-linejoin:miter;stroke-opacity:1" />
      <path
         sodipodi:nodetypes="ccccccccccccc"
         id="path3312"
         d="M 56.574704,1017.7779 L 143.80053,1033.1582 L 141.73272,1040.7719 L 124.85031,1037.7951 L 122.41125,1053.6843 L 115.43892,1052.0923 L 116.80331,1044.3545 L 77.411004,1037.4086 L 76.336323,1045.5601 L 67.729443,1042.9545 L 70.334165,1028.1824 L 54.920624,1025.102 L 56.574704,1017.7779 z"
         style="fill:#000000;fill-opacity:1;fill-rule:evenodd;stroke:none;stroke-width:1px;stroke-linecap:butt;stroke-linejoin:miter;stroke-opacity:1" />
    </g>
  </g>
</svg>
